G04 Layer_Physical_Order=1*
G04 Layer_Color=255*
%FSLAX44Y44*%
%MOMM*%
G71*
G01*
G75*
%ADD10C,0.2540*%
%ADD11C,1.7000*%
%ADD12C,2.0000*%
G36*
X1400000Y440000D02*
X779000D01*
Y461000D01*
Y1180000D01*
X1400000D01*
Y440000D01*
D02*
G37*
%LPC*%
G36*
X1333400Y1157591D02*
X1330659Y1157230D01*
X1328105Y1156172D01*
X1325911Y1154489D01*
X1324228Y1152295D01*
X1323170Y1149741D01*
X1322809Y1147000D01*
X1323170Y1144259D01*
X1323983Y1142298D01*
X1319019Y1137334D01*
X1314737D01*
X1314306Y1138604D01*
X1315489Y1139511D01*
X1317172Y1141705D01*
X1318230Y1144259D01*
X1318591Y1147000D01*
X1318230Y1149741D01*
X1317172Y1152295D01*
X1315489Y1154489D01*
X1313295Y1156172D01*
X1310741Y1157230D01*
X1308000Y1157591D01*
X1305259Y1157230D01*
X1302705Y1156172D01*
X1300511Y1154489D01*
X1298828Y1152295D01*
X1298016Y1150334D01*
X1283600D01*
X1282324Y1150080D01*
X1281243Y1149358D01*
X1232826Y1100941D01*
X1232559Y1100958D01*
X1230052Y1102882D01*
X1227133Y1104091D01*
X1224000Y1104504D01*
X1220867Y1104091D01*
X1217948Y1102882D01*
X1215442Y1100958D01*
X1213518Y1098452D01*
X1212309Y1095533D01*
X1211897Y1092400D01*
X1212309Y1089267D01*
X1213518Y1086348D01*
X1215442Y1083841D01*
X1217948Y1081918D01*
X1220867Y1080709D01*
X1223096Y1080415D01*
X1223665Y1080340D01*
Y1079060D01*
X1223096Y1078985D01*
X1220867Y1078691D01*
X1217948Y1077482D01*
X1215442Y1075558D01*
X1213518Y1073052D01*
X1212309Y1070133D01*
X1211897Y1067000D01*
X1212309Y1063867D01*
X1213518Y1060948D01*
X1213829Y1060544D01*
X1184525Y1031239D01*
X1183724Y1031080D01*
X1182643Y1030358D01*
X1181920Y1029276D01*
X1181666Y1028000D01*
Y883381D01*
X984604Y686319D01*
X983334Y686845D01*
Y863000D01*
X983080Y864276D01*
X982357Y865358D01*
X972565Y875150D01*
X973691Y877867D01*
X974104Y881000D01*
X973691Y884133D01*
X972482Y887052D01*
X970558Y889558D01*
X968052Y891482D01*
X965133Y892691D01*
X962904Y892984D01*
X962335Y893060D01*
Y894340D01*
X962904Y894416D01*
X965133Y894709D01*
X968052Y895918D01*
X970558Y897841D01*
X972482Y900348D01*
X973608Y903066D01*
X979400D01*
X980676Y903320D01*
X981758Y904043D01*
X992357Y914642D01*
X993080Y915724D01*
X993334Y917000D01*
Y1024000D01*
X993080Y1025276D01*
X992358Y1026357D01*
X985957Y1032757D01*
X984876Y1033480D01*
X983600Y1033734D01*
X973608D01*
X972482Y1036452D01*
X970558Y1038959D01*
X968052Y1040882D01*
X965133Y1042091D01*
X962000Y1042504D01*
X958867Y1042091D01*
X955948Y1040882D01*
X953441Y1038959D01*
X951518Y1036452D01*
X950309Y1033533D01*
X949896Y1030400D01*
X950309Y1027267D01*
X951518Y1024348D01*
X953441Y1021842D01*
X955948Y1019918D01*
X958867Y1018709D01*
X961096Y1018416D01*
X961665Y1018340D01*
Y1017060D01*
X961096Y1016984D01*
X958867Y1016691D01*
X955948Y1015482D01*
X953441Y1013559D01*
X951518Y1011052D01*
X950392Y1008334D01*
X916000D01*
X914724Y1008080D01*
X913642Y1007357D01*
X902619Y996334D01*
X880877D01*
X880446Y997604D01*
X881889Y998711D01*
X883572Y1000905D01*
X884384Y1002866D01*
X900600D01*
X901876Y1003120D01*
X902958Y1003842D01*
X956150Y1057035D01*
X958867Y1055909D01*
X962000Y1055496D01*
X965133Y1055909D01*
X968052Y1057118D01*
X970558Y1059042D01*
X972482Y1061548D01*
X973691Y1064467D01*
X974104Y1067600D01*
X973691Y1070733D01*
X972482Y1073652D01*
X970558Y1076159D01*
X968052Y1078082D01*
X965133Y1079291D01*
X962904Y1079585D01*
X962335Y1079660D01*
Y1080940D01*
X962904Y1081015D01*
X965133Y1081309D01*
X968052Y1082518D01*
X970558Y1084442D01*
X972482Y1086948D01*
X973691Y1089867D01*
X974104Y1093000D01*
X973691Y1096133D01*
X972482Y1099052D01*
X970558Y1101559D01*
X968052Y1103482D01*
X965133Y1104691D01*
X962000Y1105104D01*
X958867Y1104691D01*
X955948Y1103482D01*
X953441Y1101559D01*
X951518Y1099052D01*
X950309Y1096133D01*
X949896Y1093000D01*
X950309Y1089867D01*
X951435Y1087150D01*
X899219Y1034934D01*
X884384D01*
X883572Y1036895D01*
X881889Y1039089D01*
X879695Y1040772D01*
X877141Y1041830D01*
X874400Y1042191D01*
X871659Y1041830D01*
X869105Y1040772D01*
X866911Y1039089D01*
X865228Y1036895D01*
X864170Y1034341D01*
X863809Y1031600D01*
X864170Y1028859D01*
X865228Y1026305D01*
X866911Y1024111D01*
X869105Y1022428D01*
X871659Y1021370D01*
X874400Y1021009D01*
X877141Y1021370D01*
X879695Y1022428D01*
X881889Y1024111D01*
X883572Y1026305D01*
X884384Y1028266D01*
X900600D01*
X901876Y1028520D01*
X902958Y1029242D01*
X956150Y1082435D01*
X958867Y1081309D01*
X961096Y1081015D01*
X961665Y1080940D01*
Y1079660D01*
X961096Y1079585D01*
X958867Y1079291D01*
X955948Y1078082D01*
X953441Y1076159D01*
X951518Y1073652D01*
X950309Y1070733D01*
X949896Y1067600D01*
X950309Y1064467D01*
X951435Y1061750D01*
X899219Y1009534D01*
X884384D01*
X883572Y1011495D01*
X881889Y1013689D01*
X879695Y1015372D01*
X877141Y1016430D01*
X874400Y1016791D01*
X871659Y1016430D01*
X869105Y1015372D01*
X866911Y1013689D01*
X865228Y1011495D01*
X864170Y1008941D01*
X863809Y1006200D01*
X864170Y1003459D01*
X865228Y1000905D01*
X866911Y998711D01*
X868354Y997604D01*
X867923Y996334D01*
X861200D01*
X859924Y996080D01*
X858842Y995358D01*
X853702Y990217D01*
X851741Y991030D01*
X849000Y991391D01*
X846259Y991030D01*
X843705Y989972D01*
X841511Y988289D01*
X839828Y986095D01*
X838770Y983541D01*
X838409Y980800D01*
X838770Y978059D01*
X839828Y975505D01*
X841511Y973311D01*
X843705Y971628D01*
X846259Y970570D01*
X849000Y970209D01*
X851741Y970570D01*
X854295Y971628D01*
X856489Y973311D01*
X858172Y975505D01*
X859230Y978059D01*
X859591Y980800D01*
X859230Y983541D01*
X858417Y985502D01*
X862581Y989666D01*
X866731D01*
X867139Y988463D01*
X866911Y988289D01*
X865228Y986095D01*
X864170Y983541D01*
X863809Y980800D01*
X864170Y978059D01*
X865228Y975505D01*
X866911Y973311D01*
X869105Y971628D01*
X871659Y970570D01*
X874400Y970209D01*
X877141Y970570D01*
X879695Y971628D01*
X881889Y973311D01*
X883572Y975505D01*
X884384Y977466D01*
X948819D01*
X951435Y974850D01*
X950309Y972133D01*
X949896Y969000D01*
X950309Y965867D01*
X951518Y962948D01*
X953441Y960442D01*
X955948Y958518D01*
X958867Y957309D01*
X961096Y957016D01*
X961665Y956940D01*
Y955660D01*
X961096Y955584D01*
X958867Y955291D01*
X956150Y954165D01*
X952558Y957757D01*
X951476Y958480D01*
X950200Y958734D01*
X884384D01*
X883572Y960695D01*
X881889Y962889D01*
X879695Y964572D01*
X877141Y965630D01*
X874400Y965991D01*
X871659Y965630D01*
X869105Y964572D01*
X866911Y962889D01*
X865228Y960695D01*
X864170Y958141D01*
X863809Y955400D01*
X864170Y952659D01*
X865228Y950105D01*
X866911Y947911D01*
X867400Y947537D01*
X866991Y946334D01*
X862781D01*
X858417Y950698D01*
X859230Y952659D01*
X859591Y955400D01*
X859230Y958141D01*
X858172Y960695D01*
X856489Y962889D01*
X854295Y964572D01*
X851741Y965630D01*
X849000Y965991D01*
X846259Y965630D01*
X843705Y964572D01*
X841511Y962889D01*
X839828Y960695D01*
X838770Y958141D01*
X838409Y955400D01*
X838770Y952659D01*
X839828Y950105D01*
X841511Y947911D01*
X843705Y946228D01*
X846259Y945170D01*
X849000Y944809D01*
X851741Y945170D01*
X853702Y945983D01*
X859043Y940642D01*
X860124Y939920D01*
X861400Y939666D01*
X867663D01*
X868094Y938396D01*
X866911Y937489D01*
X865228Y935295D01*
X864170Y932741D01*
X863809Y930000D01*
X864170Y927259D01*
X865228Y924705D01*
X866911Y922511D01*
X869105Y920828D01*
X871659Y919770D01*
X874400Y919409D01*
X877141Y919770D01*
X879695Y920828D01*
X881889Y922511D01*
X883572Y924705D01*
X884630Y927259D01*
X884991Y930000D01*
X884630Y932741D01*
X883572Y935295D01*
X881889Y937489D01*
X880706Y938396D01*
X881137Y939666D01*
X889619D01*
X925242Y904043D01*
X926324Y903320D01*
X927600Y903066D01*
X950392D01*
X951518Y900348D01*
X953441Y897841D01*
X955948Y895918D01*
X958867Y894709D01*
X961096Y894416D01*
X961665Y894340D01*
Y893060D01*
X961096Y892984D01*
X958867Y892691D01*
X955948Y891482D01*
X953441Y889558D01*
X951518Y887052D01*
X950309Y884133D01*
X949896Y881000D01*
X950309Y877867D01*
X951518Y874948D01*
X953441Y872441D01*
X955948Y870518D01*
X958867Y869309D01*
X962000Y868896D01*
X965133Y869309D01*
X967850Y870435D01*
X976666Y861619D01*
Y687381D01*
X973619Y684334D01*
X969898D01*
X969467Y685604D01*
X970558Y686441D01*
X972482Y688948D01*
X973691Y691867D01*
X974103Y695000D01*
X973691Y698133D01*
X972482Y701052D01*
X970558Y703559D01*
X968052Y705482D01*
X965133Y706691D01*
X962904Y706984D01*
X962335Y707060D01*
Y708340D01*
X962904Y708416D01*
X965133Y708709D01*
X968052Y709918D01*
X970558Y711842D01*
X972482Y714348D01*
X973691Y717267D01*
X974103Y720400D01*
X973691Y723533D01*
X972482Y726452D01*
X970558Y728959D01*
X968052Y730882D01*
X965133Y732091D01*
X962000Y732504D01*
X958867Y732091D01*
X956150Y730965D01*
X906557Y780557D01*
X905476Y781280D01*
X904200Y781534D01*
X884384D01*
X883572Y783495D01*
X882136Y785366D01*
X882595Y786636D01*
X949245D01*
X950208Y785366D01*
X949896Y783000D01*
X950309Y779867D01*
X951518Y776948D01*
X953441Y774442D01*
X955948Y772518D01*
X958867Y771309D01*
X959597Y771213D01*
Y769932D01*
X958726Y769817D01*
X955676Y768554D01*
X953056Y766544D01*
X951046Y763924D01*
X949783Y760874D01*
X949519Y758870D01*
X962000D01*
X974481D01*
X974217Y760874D01*
X972954Y763924D01*
X970944Y766544D01*
X968324Y768554D01*
X965274Y769817D01*
X964403Y769932D01*
Y771213D01*
X965133Y771309D01*
X968052Y772518D01*
X970558Y774442D01*
X972482Y776948D01*
X973691Y779867D01*
X974104Y783000D01*
X973691Y786133D01*
X972482Y789052D01*
X970558Y791559D01*
X968052Y793482D01*
X965133Y794691D01*
X962000Y795104D01*
X958867Y794691D01*
X955948Y793482D01*
X955575Y793196D01*
X955030Y793304D01*
X880230D01*
X879969Y793853D01*
X879885Y794574D01*
X881889Y796111D01*
X883572Y798305D01*
X884630Y800859D01*
X884991Y803600D01*
X884630Y806341D01*
X883572Y808895D01*
X881889Y811089D01*
X879695Y812772D01*
X877141Y813830D01*
X874400Y814191D01*
X871659Y813830D01*
X869105Y812772D01*
X866911Y811089D01*
X865228Y808895D01*
X864170Y806341D01*
X863809Y803600D01*
X864170Y800859D01*
X865228Y798305D01*
X866911Y796111D01*
X868915Y794574D01*
X868831Y793853D01*
X868570Y793304D01*
X866411D01*
X859120Y800595D01*
X859230Y800859D01*
X859591Y803600D01*
X859230Y806341D01*
X858172Y808895D01*
X856489Y811089D01*
X854295Y812772D01*
X851741Y813830D01*
X849000Y814191D01*
X846259Y813830D01*
X843705Y812772D01*
X841511Y811089D01*
X839828Y808895D01*
X838770Y806341D01*
X838409Y803600D01*
X838770Y800859D01*
X839828Y798305D01*
X841511Y796111D01*
X843705Y794428D01*
X846259Y793370D01*
X849000Y793009D01*
X851741Y793370D01*
X854295Y794428D01*
X855179Y795106D01*
X862673Y787613D01*
X863754Y786890D01*
X865030Y786636D01*
X866205D01*
X866664Y785366D01*
X865228Y783495D01*
X864170Y780941D01*
X863809Y778200D01*
X864170Y775459D01*
X865228Y772905D01*
X866911Y770711D01*
X869105Y769028D01*
X871659Y767970D01*
X874400Y767609D01*
X877141Y767970D01*
X879695Y769028D01*
X881889Y770711D01*
X883572Y772905D01*
X884384Y774866D01*
X902819D01*
X951435Y726250D01*
X950309Y723533D01*
X949896Y720400D01*
X950309Y717267D01*
X951518Y714348D01*
X953441Y711842D01*
X955948Y709918D01*
X958867Y708709D01*
X961096Y708416D01*
X961665Y708340D01*
Y707060D01*
X961096Y706984D01*
X958867Y706691D01*
X956150Y705565D01*
X906557Y755157D01*
X905476Y755880D01*
X904200Y756134D01*
X884384D01*
X883572Y758095D01*
X881889Y760289D01*
X879695Y761972D01*
X877141Y763030D01*
X874400Y763391D01*
X871659Y763030D01*
X869105Y761972D01*
X866911Y760289D01*
X865228Y758095D01*
X864170Y755541D01*
X863809Y752800D01*
X864170Y750059D01*
X865228Y747505D01*
X866911Y745311D01*
X869105Y743628D01*
X871659Y742570D01*
X874400Y742209D01*
X877141Y742570D01*
X879695Y743628D01*
X881889Y745311D01*
X883572Y747505D01*
X884384Y749466D01*
X902819D01*
X951435Y700850D01*
X950309Y698133D01*
X949896Y695000D01*
X950309Y691867D01*
X951518Y688948D01*
X953441Y686441D01*
X954533Y685604D01*
X954102Y684334D01*
X950381D01*
X904958Y729758D01*
X903876Y730480D01*
X902600Y730734D01*
X884384D01*
X883572Y732695D01*
X881889Y734889D01*
X879695Y736572D01*
X877141Y737630D01*
X874400Y737991D01*
X871659Y737630D01*
X869105Y736572D01*
X866911Y734889D01*
X865228Y732695D01*
X864170Y730141D01*
X863809Y727400D01*
X864170Y724659D01*
X865228Y722105D01*
X866911Y719911D01*
X869105Y718228D01*
X871659Y717170D01*
X874400Y716809D01*
X877141Y717170D01*
X879695Y718228D01*
X881889Y719911D01*
X883572Y722105D01*
X884384Y724066D01*
X901219D01*
X946643Y678643D01*
X947724Y677920D01*
X949000Y677666D01*
X974155D01*
X974681Y676396D01*
X928619Y630334D01*
X883887D01*
X883572Y631095D01*
X881889Y633289D01*
X879695Y634972D01*
X877141Y636030D01*
X874400Y636391D01*
X871659Y636030D01*
X869105Y634972D01*
X866911Y633289D01*
X865228Y631095D01*
X864170Y628541D01*
X863809Y625800D01*
X864170Y623059D01*
X865228Y620505D01*
X866911Y618311D01*
X869105Y616628D01*
X871659Y615570D01*
X874400Y615209D01*
X877141Y615570D01*
X879695Y616628D01*
X881889Y618311D01*
X883572Y620505D01*
X884630Y623059D01*
X884710Y623666D01*
X930000D01*
X931276Y623920D01*
X932357Y624642D01*
X1187357Y879642D01*
X1188080Y880724D01*
X1188334Y882000D01*
Y1025619D01*
X1218857Y1056142D01*
X1220867Y1055309D01*
X1224000Y1054896D01*
X1225667Y1055116D01*
X1226260Y1053913D01*
X1221643Y1049296D01*
X1220920Y1048214D01*
X1220666Y1046938D01*
Y1042608D01*
X1217948Y1041482D01*
X1215442Y1039558D01*
X1213518Y1037052D01*
X1212309Y1034133D01*
X1211897Y1031000D01*
X1212309Y1027867D01*
X1213518Y1024948D01*
X1215442Y1022441D01*
X1217948Y1020518D01*
X1220867Y1019309D01*
X1223096Y1019016D01*
X1223665Y1018940D01*
Y1017660D01*
X1223096Y1017585D01*
X1220867Y1017291D01*
X1217948Y1016082D01*
X1215442Y1014158D01*
X1213518Y1011652D01*
X1212309Y1008733D01*
X1211897Y1005600D01*
X1212309Y1002467D01*
X1213518Y999548D01*
X1215442Y997041D01*
X1217948Y995118D01*
X1220867Y993909D01*
X1224000Y993496D01*
X1227133Y993909D01*
X1230052Y995118D01*
X1232559Y997041D01*
X1234482Y999548D01*
X1235691Y1002467D01*
X1236104Y1005600D01*
X1235691Y1008733D01*
X1234566Y1011450D01*
X1274358Y1051242D01*
X1275080Y1052324D01*
X1275334Y1053600D01*
Y1078619D01*
X1296919Y1100203D01*
X1297995Y1099484D01*
X1297770Y1098941D01*
X1297409Y1096200D01*
X1297770Y1093459D01*
X1298828Y1090905D01*
X1300511Y1088711D01*
X1302705Y1087028D01*
X1305259Y1085970D01*
X1308000Y1085609D01*
X1310741Y1085970D01*
X1313295Y1087028D01*
X1315489Y1088711D01*
X1317172Y1090905D01*
X1318230Y1093459D01*
X1318591Y1096200D01*
X1318230Y1098941D01*
X1317172Y1101495D01*
X1315713Y1103396D01*
X1316143Y1104666D01*
X1319800D01*
X1321076Y1104920D01*
X1322157Y1105642D01*
X1328698Y1112183D01*
X1330659Y1111370D01*
X1333400Y1111009D01*
X1336141Y1111370D01*
X1338695Y1112428D01*
X1340889Y1114111D01*
X1342572Y1116305D01*
X1343630Y1118859D01*
X1343991Y1121600D01*
X1343630Y1124341D01*
X1342572Y1126895D01*
X1340889Y1129089D01*
X1338695Y1130772D01*
X1336141Y1131830D01*
X1333400Y1132191D01*
X1330659Y1131830D01*
X1328105Y1130772D01*
X1325911Y1129089D01*
X1324228Y1126895D01*
X1323170Y1124341D01*
X1322809Y1121600D01*
X1323170Y1118859D01*
X1323983Y1116898D01*
X1318419Y1111334D01*
X1313860D01*
X1313687Y1111671D01*
X1313524Y1112604D01*
X1315489Y1114111D01*
X1317172Y1116305D01*
X1318230Y1118859D01*
X1318591Y1121600D01*
X1318230Y1124341D01*
X1317172Y1126895D01*
X1315489Y1129089D01*
X1315000Y1129463D01*
X1315409Y1130666D01*
X1320400D01*
X1321676Y1130920D01*
X1322758Y1131643D01*
X1328698Y1137583D01*
X1330659Y1136770D01*
X1333400Y1136409D01*
X1336141Y1136770D01*
X1338695Y1137828D01*
X1340889Y1139511D01*
X1342572Y1141705D01*
X1343630Y1144259D01*
X1343991Y1147000D01*
X1343630Y1149741D01*
X1342572Y1152295D01*
X1340889Y1154489D01*
X1338695Y1156172D01*
X1336141Y1157230D01*
X1333400Y1157591D01*
D02*
G37*
G36*
Y1106791D02*
X1330659Y1106430D01*
X1328105Y1105372D01*
X1325911Y1103689D01*
X1324228Y1101495D01*
X1323170Y1098941D01*
X1322809Y1096200D01*
X1323170Y1093459D01*
X1324228Y1090905D01*
X1325911Y1088711D01*
X1328105Y1087028D01*
X1330659Y1085970D01*
X1333400Y1085609D01*
X1336141Y1085970D01*
X1338695Y1087028D01*
X1340889Y1088711D01*
X1342572Y1090905D01*
X1343630Y1093459D01*
X1343991Y1096200D01*
X1343630Y1098941D01*
X1342572Y1101495D01*
X1340889Y1103689D01*
X1338695Y1105372D01*
X1336141Y1106430D01*
X1333400Y1106791D01*
D02*
G37*
G36*
X1334670Y1081768D02*
Y1072070D01*
X1344368D01*
X1344156Y1073682D01*
X1343043Y1076368D01*
X1341274Y1078674D01*
X1338968Y1080443D01*
X1336282Y1081556D01*
X1334670Y1081768D01*
D02*
G37*
G36*
X1332130D02*
X1330518Y1081556D01*
X1327832Y1080443D01*
X1325526Y1078674D01*
X1323757Y1076368D01*
X1322644Y1073682D01*
X1322432Y1072070D01*
X1332130D01*
Y1081768D01*
D02*
G37*
G36*
X1308000Y1081391D02*
X1305259Y1081030D01*
X1302705Y1079972D01*
X1300511Y1078289D01*
X1298828Y1076095D01*
X1297770Y1073541D01*
X1297409Y1070800D01*
X1297770Y1068059D01*
X1298828Y1065505D01*
X1300511Y1063311D01*
X1302705Y1061628D01*
X1305259Y1060570D01*
X1308000Y1060209D01*
X1310741Y1060570D01*
X1313295Y1061628D01*
X1315489Y1063311D01*
X1317172Y1065505D01*
X1318230Y1068059D01*
X1318591Y1070800D01*
X1318230Y1073541D01*
X1317172Y1076095D01*
X1315489Y1078289D01*
X1313295Y1079972D01*
X1310741Y1081030D01*
X1308000Y1081391D01*
D02*
G37*
G36*
X1344368Y1069530D02*
X1334670D01*
Y1059832D01*
X1336282Y1060044D01*
X1338968Y1061157D01*
X1341274Y1062926D01*
X1343043Y1065232D01*
X1344156Y1067918D01*
X1344368Y1069530D01*
D02*
G37*
G36*
X1332130D02*
X1322432D01*
X1322644Y1067918D01*
X1323757Y1065232D01*
X1325526Y1062926D01*
X1327832Y1061157D01*
X1330518Y1060044D01*
X1332130Y1059832D01*
Y1069530D01*
D02*
G37*
G36*
X874400Y1067591D02*
X871659Y1067230D01*
X869105Y1066172D01*
X866911Y1064489D01*
X865228Y1062295D01*
X864170Y1059741D01*
X863809Y1057000D01*
X864170Y1054259D01*
X865228Y1051705D01*
X866911Y1049511D01*
X869105Y1047828D01*
X871659Y1046770D01*
X874400Y1046409D01*
X877141Y1046770D01*
X879695Y1047828D01*
X881889Y1049511D01*
X883572Y1051705D01*
X884630Y1054259D01*
X884991Y1057000D01*
X884630Y1059741D01*
X883572Y1062295D01*
X881889Y1064489D01*
X879695Y1066172D01*
X877141Y1067230D01*
X874400Y1067591D01*
D02*
G37*
G36*
X849000D02*
X846259Y1067230D01*
X843705Y1066172D01*
X841511Y1064489D01*
X839828Y1062295D01*
X838770Y1059741D01*
X838409Y1057000D01*
X838770Y1054259D01*
X839828Y1051705D01*
X841511Y1049511D01*
X843705Y1047828D01*
X846259Y1046770D01*
X849000Y1046409D01*
X851741Y1046770D01*
X854295Y1047828D01*
X856489Y1049511D01*
X858172Y1051705D01*
X859230Y1054259D01*
X859591Y1057000D01*
X859230Y1059741D01*
X858172Y1062295D01*
X856489Y1064489D01*
X854295Y1066172D01*
X851741Y1067230D01*
X849000Y1067591D01*
D02*
G37*
G36*
X1333400Y1055991D02*
X1330659Y1055630D01*
X1328105Y1054572D01*
X1325911Y1052889D01*
X1324228Y1050695D01*
X1323170Y1048141D01*
X1322809Y1045400D01*
X1323170Y1042659D01*
X1324228Y1040105D01*
X1325911Y1037911D01*
X1328105Y1036228D01*
X1330659Y1035170D01*
X1333400Y1034809D01*
X1336141Y1035170D01*
X1338695Y1036228D01*
X1340889Y1037911D01*
X1342572Y1040105D01*
X1343630Y1042659D01*
X1343991Y1045400D01*
X1343630Y1048141D01*
X1342572Y1050695D01*
X1340889Y1052889D01*
X1338695Y1054572D01*
X1336141Y1055630D01*
X1333400Y1055991D01*
D02*
G37*
G36*
X1308000D02*
X1305259Y1055630D01*
X1302705Y1054572D01*
X1300511Y1052889D01*
X1298828Y1050695D01*
X1297770Y1048141D01*
X1297409Y1045400D01*
X1297770Y1042659D01*
X1298828Y1040105D01*
X1300511Y1037911D01*
X1302705Y1036228D01*
X1305259Y1035170D01*
X1308000Y1034809D01*
X1310741Y1035170D01*
X1313295Y1036228D01*
X1315489Y1037911D01*
X1317172Y1040105D01*
X1318230Y1042659D01*
X1318591Y1045400D01*
X1318230Y1048141D01*
X1317172Y1050695D01*
X1315489Y1052889D01*
X1313295Y1054572D01*
X1310741Y1055630D01*
X1308000Y1055991D01*
D02*
G37*
G36*
X849000Y1042191D02*
X846259Y1041830D01*
X843705Y1040772D01*
X841511Y1039089D01*
X839828Y1036895D01*
X838770Y1034341D01*
X838409Y1031600D01*
X838770Y1028859D01*
X839828Y1026305D01*
X841511Y1024111D01*
X843705Y1022428D01*
X846259Y1021370D01*
X849000Y1021009D01*
X851741Y1021370D01*
X854295Y1022428D01*
X856489Y1024111D01*
X858172Y1026305D01*
X859230Y1028859D01*
X859591Y1031600D01*
X859230Y1034341D01*
X858172Y1036895D01*
X856489Y1039089D01*
X854295Y1040772D01*
X851741Y1041830D01*
X849000Y1042191D01*
D02*
G37*
G36*
X1333400Y1030591D02*
X1330659Y1030230D01*
X1328105Y1029172D01*
X1325911Y1027489D01*
X1324228Y1025295D01*
X1323170Y1022741D01*
X1322809Y1020000D01*
X1323170Y1017259D01*
X1324228Y1014705D01*
X1325911Y1012511D01*
X1328105Y1010828D01*
X1330659Y1009770D01*
X1333400Y1009409D01*
X1336141Y1009770D01*
X1338695Y1010828D01*
X1340889Y1012511D01*
X1342572Y1014705D01*
X1343630Y1017259D01*
X1343991Y1020000D01*
X1343630Y1022741D01*
X1342572Y1025295D01*
X1340889Y1027489D01*
X1338695Y1029172D01*
X1336141Y1030230D01*
X1333400Y1030591D01*
D02*
G37*
G36*
X1308000D02*
X1305259Y1030230D01*
X1302705Y1029172D01*
X1300511Y1027489D01*
X1298828Y1025295D01*
X1297770Y1022741D01*
X1297409Y1020000D01*
X1297770Y1017259D01*
X1298828Y1014705D01*
X1300511Y1012511D01*
X1302705Y1010828D01*
X1305259Y1009770D01*
X1308000Y1009409D01*
X1310741Y1009770D01*
X1313295Y1010828D01*
X1315489Y1012511D01*
X1317172Y1014705D01*
X1318230Y1017259D01*
X1318591Y1020000D01*
X1318230Y1022741D01*
X1317172Y1025295D01*
X1315489Y1027489D01*
X1313295Y1029172D01*
X1310741Y1030230D01*
X1308000Y1030591D01*
D02*
G37*
G36*
X849000Y1016791D02*
X846259Y1016430D01*
X843705Y1015372D01*
X841511Y1013689D01*
X839828Y1011495D01*
X838770Y1008941D01*
X838409Y1006200D01*
X838770Y1003459D01*
X839828Y1000905D01*
X841511Y998711D01*
X843705Y997028D01*
X846259Y995970D01*
X849000Y995609D01*
X851741Y995970D01*
X854295Y997028D01*
X856489Y998711D01*
X858172Y1000905D01*
X859230Y1003459D01*
X859591Y1006200D01*
X859230Y1008941D01*
X858172Y1011495D01*
X856489Y1013689D01*
X854295Y1015372D01*
X851741Y1016430D01*
X849000Y1016791D01*
D02*
G37*
G36*
X1333400Y1005191D02*
X1330659Y1004830D01*
X1328105Y1003772D01*
X1325911Y1002089D01*
X1324228Y999895D01*
X1323170Y997341D01*
X1322809Y994600D01*
X1323170Y991859D01*
X1324228Y989305D01*
X1325911Y987111D01*
X1328105Y985428D01*
X1330659Y984370D01*
X1333400Y984009D01*
X1336141Y984370D01*
X1338695Y985428D01*
X1340889Y987111D01*
X1342572Y989305D01*
X1343630Y991859D01*
X1343991Y994600D01*
X1343630Y997341D01*
X1342572Y999895D01*
X1340889Y1002089D01*
X1338695Y1003772D01*
X1336141Y1004830D01*
X1333400Y1005191D01*
D02*
G37*
G36*
X1308000D02*
X1305259Y1004830D01*
X1302705Y1003772D01*
X1300511Y1002089D01*
X1298828Y999895D01*
X1297770Y997341D01*
X1297409Y994600D01*
X1297770Y991859D01*
X1298828Y989305D01*
X1300511Y987111D01*
X1302705Y985428D01*
X1305259Y984370D01*
X1308000Y984009D01*
X1310741Y984370D01*
X1313295Y985428D01*
X1315489Y987111D01*
X1317172Y989305D01*
X1318230Y991859D01*
X1318591Y994600D01*
X1318230Y997341D01*
X1317172Y999895D01*
X1315489Y1002089D01*
X1313295Y1003772D01*
X1310741Y1004830D01*
X1308000Y1005191D01*
D02*
G37*
G36*
X1333400Y979791D02*
X1330659Y979430D01*
X1328105Y978372D01*
X1325911Y976689D01*
X1324228Y974495D01*
X1323170Y971941D01*
X1322809Y969200D01*
X1323170Y966459D01*
X1324228Y963905D01*
X1325911Y961711D01*
X1328105Y960028D01*
X1330659Y958970D01*
X1333400Y958609D01*
X1336141Y958970D01*
X1338695Y960028D01*
X1340889Y961711D01*
X1342572Y963905D01*
X1343630Y966459D01*
X1343991Y969200D01*
X1343630Y971941D01*
X1342572Y974495D01*
X1340889Y976689D01*
X1338695Y978372D01*
X1336141Y979430D01*
X1333400Y979791D01*
D02*
G37*
G36*
X1308000D02*
X1305259Y979430D01*
X1302705Y978372D01*
X1300511Y976689D01*
X1298828Y974495D01*
X1297770Y971941D01*
X1297409Y969200D01*
X1297770Y966459D01*
X1298828Y963905D01*
X1300511Y961711D01*
X1302705Y960028D01*
X1305259Y958970D01*
X1308000Y958609D01*
X1310741Y958970D01*
X1313295Y960028D01*
X1315489Y961711D01*
X1317172Y963905D01*
X1318230Y966459D01*
X1318591Y969200D01*
X1318230Y971941D01*
X1317172Y974495D01*
X1315489Y976689D01*
X1313295Y978372D01*
X1310741Y979430D01*
X1308000Y979791D01*
D02*
G37*
G36*
X1333400Y954391D02*
X1330659Y954030D01*
X1328105Y952972D01*
X1325911Y951289D01*
X1324228Y949095D01*
X1323170Y946541D01*
X1322809Y943800D01*
X1323170Y941059D01*
X1324228Y938505D01*
X1325911Y936311D01*
X1328105Y934628D01*
X1330659Y933570D01*
X1333400Y933209D01*
X1336141Y933570D01*
X1338695Y934628D01*
X1340889Y936311D01*
X1342572Y938505D01*
X1343630Y941059D01*
X1343991Y943800D01*
X1343630Y946541D01*
X1342572Y949095D01*
X1340889Y951289D01*
X1338695Y952972D01*
X1336141Y954030D01*
X1333400Y954391D01*
D02*
G37*
G36*
X1308000D02*
X1305259Y954030D01*
X1302705Y952972D01*
X1300511Y951289D01*
X1298828Y949095D01*
X1297770Y946541D01*
X1297409Y943800D01*
X1297770Y941059D01*
X1298828Y938505D01*
X1300511Y936311D01*
X1302705Y934628D01*
X1305259Y933570D01*
X1308000Y933209D01*
X1310741Y933570D01*
X1313295Y934628D01*
X1315489Y936311D01*
X1317172Y938505D01*
X1318230Y941059D01*
X1318591Y943800D01*
X1318230Y946541D01*
X1317172Y949095D01*
X1315489Y951289D01*
X1313295Y952972D01*
X1310741Y954030D01*
X1308000Y954391D01*
D02*
G37*
G36*
X850270Y940968D02*
Y931270D01*
X859968D01*
X859756Y932882D01*
X858643Y935568D01*
X856874Y937874D01*
X854568Y939643D01*
X851882Y940756D01*
X850270Y940968D01*
D02*
G37*
G36*
X847730D02*
X846118Y940756D01*
X843432Y939643D01*
X841126Y937874D01*
X839357Y935568D01*
X838244Y932882D01*
X838032Y931270D01*
X847730D01*
Y940968D01*
D02*
G37*
G36*
X859968Y928730D02*
X850270D01*
Y919032D01*
X851882Y919244D01*
X854568Y920357D01*
X856874Y922126D01*
X858643Y924432D01*
X859756Y927118D01*
X859968Y928730D01*
D02*
G37*
G36*
X847730D02*
X838032D01*
X838244Y927118D01*
X839357Y924432D01*
X841126Y922126D01*
X843432Y920357D01*
X846118Y919244D01*
X847730Y919032D01*
Y928730D01*
D02*
G37*
G36*
X1333400Y928991D02*
X1330659Y928630D01*
X1328105Y927572D01*
X1325911Y925889D01*
X1324228Y923695D01*
X1323170Y921141D01*
X1322809Y918400D01*
X1323170Y915659D01*
X1324228Y913105D01*
X1325911Y910911D01*
X1328105Y909228D01*
X1330659Y908170D01*
X1333400Y907809D01*
X1336141Y908170D01*
X1338695Y909228D01*
X1340889Y910911D01*
X1342572Y913105D01*
X1343630Y915659D01*
X1343991Y918400D01*
X1343630Y921141D01*
X1342572Y923695D01*
X1340889Y925889D01*
X1338695Y927572D01*
X1336141Y928630D01*
X1333400Y928991D01*
D02*
G37*
G36*
X1308000D02*
X1305259Y928630D01*
X1302705Y927572D01*
X1300511Y925889D01*
X1298828Y923695D01*
X1297770Y921141D01*
X1297409Y918400D01*
X1297770Y915659D01*
X1298828Y913105D01*
X1300511Y910911D01*
X1302705Y909228D01*
X1305259Y908170D01*
X1308000Y907809D01*
X1310741Y908170D01*
X1313295Y909228D01*
X1315489Y910911D01*
X1317172Y913105D01*
X1318230Y915659D01*
X1318591Y918400D01*
X1318230Y921141D01*
X1317172Y923695D01*
X1315489Y925889D01*
X1313295Y927572D01*
X1310741Y928630D01*
X1308000Y928991D01*
D02*
G37*
G36*
X850270Y915568D02*
Y905870D01*
X859968D01*
X859756Y907482D01*
X858643Y910168D01*
X856874Y912474D01*
X854568Y914243D01*
X851882Y915356D01*
X850270Y915568D01*
D02*
G37*
G36*
X847730D02*
X846118Y915356D01*
X843432Y914243D01*
X841126Y912474D01*
X839357Y910168D01*
X838244Y907482D01*
X838032Y905870D01*
X847730D01*
Y915568D01*
D02*
G37*
G36*
X859968Y903330D02*
X850270D01*
Y893632D01*
X851882Y893844D01*
X854568Y894957D01*
X856874Y896726D01*
X858643Y899032D01*
X859756Y901718D01*
X859968Y903330D01*
D02*
G37*
G36*
X847730D02*
X838032D01*
X838244Y901718D01*
X839357Y899032D01*
X841126Y896726D01*
X843432Y894957D01*
X846118Y893844D01*
X847730Y893632D01*
Y903330D01*
D02*
G37*
G36*
X849000Y889791D02*
X846259Y889430D01*
X843705Y888372D01*
X841511Y886689D01*
X839828Y884495D01*
X838770Y881941D01*
X838409Y879200D01*
X838770Y876459D01*
X839828Y873905D01*
X841511Y871711D01*
X843705Y870028D01*
X846259Y868970D01*
X849000Y868609D01*
X851741Y868970D01*
X854295Y870028D01*
X856489Y871711D01*
X858172Y873905D01*
X859230Y876459D01*
X859591Y879200D01*
X859230Y881941D01*
X858172Y884495D01*
X856489Y886689D01*
X854295Y888372D01*
X851741Y889430D01*
X849000Y889791D01*
D02*
G37*
G36*
X1333400Y889591D02*
X1330659Y889230D01*
X1328105Y888172D01*
X1325911Y886489D01*
X1324228Y884295D01*
X1323170Y881741D01*
X1322809Y879000D01*
X1323170Y876259D01*
X1324228Y873705D01*
X1325911Y871511D01*
X1328105Y869828D01*
X1330659Y868770D01*
X1333400Y868409D01*
X1336141Y868770D01*
X1338695Y869828D01*
X1340889Y871511D01*
X1342572Y873705D01*
X1343630Y876259D01*
X1343991Y879000D01*
X1343630Y881741D01*
X1342572Y884295D01*
X1340889Y886489D01*
X1338695Y888172D01*
X1336141Y889230D01*
X1333400Y889591D01*
D02*
G37*
G36*
X1224000Y981104D02*
X1220867Y980691D01*
X1217948Y979482D01*
X1215442Y977559D01*
X1213518Y975052D01*
X1212309Y972133D01*
X1211897Y969000D01*
X1212309Y965867D01*
X1213518Y962948D01*
X1215442Y960442D01*
X1217948Y958518D01*
X1220867Y957309D01*
X1223096Y957016D01*
X1223665Y956940D01*
Y955660D01*
X1223096Y955584D01*
X1220867Y955291D01*
X1217948Y954082D01*
X1215442Y952159D01*
X1213518Y949652D01*
X1212309Y946733D01*
X1211897Y943600D01*
X1212309Y940467D01*
X1213518Y937548D01*
X1215442Y935042D01*
X1217948Y933118D01*
X1220867Y931909D01*
X1224000Y931496D01*
X1224711Y931590D01*
X1225666Y930753D01*
Y889000D01*
X1225920Y887724D01*
X1226643Y886642D01*
X1274642Y838643D01*
X1275724Y837920D01*
X1277000Y837666D01*
X1300226D01*
X1300634Y836463D01*
X1300126Y836074D01*
X1298357Y833768D01*
X1297244Y831082D01*
X1297032Y829470D01*
X1308000D01*
X1318968D01*
X1318756Y831082D01*
X1317643Y833768D01*
X1316020Y835883D01*
X1316161Y836652D01*
X1316450Y837232D01*
X1316974Y837311D01*
X1323221Y831064D01*
X1323170Y830941D01*
X1322809Y828200D01*
X1323170Y825459D01*
X1324228Y822905D01*
X1325911Y820711D01*
X1328105Y819028D01*
X1330659Y817970D01*
X1333400Y817609D01*
X1336141Y817970D01*
X1338695Y819028D01*
X1340889Y820711D01*
X1342572Y822905D01*
X1343630Y825459D01*
X1343991Y828200D01*
X1343630Y830941D01*
X1342572Y833495D01*
X1340889Y835689D01*
X1338695Y837372D01*
X1336141Y838430D01*
X1333400Y838791D01*
X1330659Y838430D01*
X1328105Y837372D01*
X1327108Y836607D01*
X1320358Y843357D01*
X1319276Y844080D01*
X1318000Y844334D01*
X1315259D01*
X1314828Y845604D01*
X1315489Y846111D01*
X1317172Y848305D01*
X1318230Y850859D01*
X1318591Y853600D01*
X1318230Y856341D01*
X1317172Y858895D01*
X1315489Y861089D01*
X1313485Y862626D01*
X1313569Y863347D01*
X1313830Y863896D01*
X1318389D01*
X1323983Y858302D01*
X1323170Y856341D01*
X1322809Y853600D01*
X1323170Y850859D01*
X1324228Y848305D01*
X1325911Y846111D01*
X1328105Y844428D01*
X1330659Y843370D01*
X1333400Y843009D01*
X1336141Y843370D01*
X1338695Y844428D01*
X1340889Y846111D01*
X1342572Y848305D01*
X1343630Y850859D01*
X1343991Y853600D01*
X1343630Y856341D01*
X1342572Y858895D01*
X1340889Y861089D01*
X1338695Y862772D01*
X1336141Y863830D01*
X1333400Y864191D01*
X1330659Y863830D01*
X1328698Y863017D01*
X1322128Y869587D01*
X1321046Y870310D01*
X1319770Y870564D01*
X1316195D01*
X1315736Y871834D01*
X1317172Y873705D01*
X1318230Y876259D01*
X1318591Y879000D01*
X1318230Y881741D01*
X1317172Y884295D01*
X1315489Y886489D01*
X1313295Y888172D01*
X1310741Y889230D01*
X1308000Y889591D01*
X1305259Y889230D01*
X1302705Y888172D01*
X1300511Y886489D01*
X1298828Y884295D01*
X1297770Y881741D01*
X1297409Y879000D01*
X1297770Y876259D01*
X1298828Y873705D01*
X1300264Y871834D01*
X1299805Y870564D01*
X1284151D01*
X1263334Y891382D01*
X1263334Y933000D01*
X1263080Y934276D01*
X1262358Y935358D01*
X1262357Y935358D01*
X1234565Y963150D01*
X1235691Y965867D01*
X1236104Y969000D01*
X1235691Y972133D01*
X1234482Y975052D01*
X1232559Y977559D01*
X1230052Y979482D01*
X1227133Y980691D01*
X1224000Y981104D01*
D02*
G37*
G36*
X874400Y915191D02*
X871659Y914830D01*
X869105Y913772D01*
X866911Y912089D01*
X865228Y909895D01*
X864170Y907341D01*
X863809Y904600D01*
X864170Y901859D01*
X865228Y899305D01*
X866911Y897111D01*
X869105Y895428D01*
X871659Y894370D01*
X874400Y894009D01*
X877141Y894370D01*
X879695Y895428D01*
X881889Y897111D01*
X883572Y899305D01*
X884384Y901266D01*
X901019D01*
X951435Y850850D01*
X950309Y848133D01*
X949896Y845000D01*
X950309Y841867D01*
X951518Y838948D01*
X953441Y836441D01*
X955948Y834518D01*
X958867Y833309D01*
X961096Y833016D01*
X961665Y832940D01*
Y831660D01*
X961096Y831584D01*
X958867Y831291D01*
X956150Y830165D01*
X904758Y881557D01*
X903676Y882280D01*
X902400Y882534D01*
X884384D01*
X883572Y884495D01*
X881889Y886689D01*
X879695Y888372D01*
X877141Y889430D01*
X874400Y889791D01*
X871659Y889430D01*
X869105Y888372D01*
X866911Y886689D01*
X865228Y884495D01*
X864170Y881941D01*
X863809Y879200D01*
X864170Y876459D01*
X865228Y873905D01*
X866911Y871711D01*
X869105Y870028D01*
X871659Y868970D01*
X874400Y868609D01*
X877141Y868970D01*
X879695Y870028D01*
X881889Y871711D01*
X883572Y873905D01*
X884384Y875866D01*
X901019D01*
X951435Y825450D01*
X950309Y822733D01*
X949896Y819600D01*
X950309Y816467D01*
X951518Y813548D01*
X953441Y811041D01*
X955948Y809118D01*
X958867Y807909D01*
X962000Y807496D01*
X965133Y807909D01*
X968052Y809118D01*
X970558Y811041D01*
X972482Y813548D01*
X973691Y816467D01*
X974104Y819600D01*
X973691Y822733D01*
X972482Y825652D01*
X970558Y828158D01*
X968052Y830082D01*
X965133Y831291D01*
X962904Y831584D01*
X962335Y831660D01*
Y832940D01*
X962904Y833016D01*
X965133Y833309D01*
X968052Y834518D01*
X970558Y836441D01*
X972482Y838948D01*
X973691Y841867D01*
X974104Y845000D01*
X973691Y848133D01*
X972482Y851052D01*
X970558Y853559D01*
X968052Y855482D01*
X965133Y856691D01*
X962000Y857104D01*
X958867Y856691D01*
X956150Y855565D01*
X904758Y906957D01*
X903676Y907680D01*
X902400Y907934D01*
X884384D01*
X883572Y909895D01*
X881889Y912089D01*
X879695Y913772D01*
X877141Y914830D01*
X874400Y915191D01*
D02*
G37*
G36*
Y839591D02*
X871659Y839230D01*
X869105Y838172D01*
X866911Y836489D01*
X865228Y834295D01*
X864170Y831741D01*
X863809Y829000D01*
X864170Y826259D01*
X865228Y823705D01*
X866911Y821511D01*
X869105Y819828D01*
X871659Y818770D01*
X874400Y818409D01*
X877141Y818770D01*
X879695Y819828D01*
X881889Y821511D01*
X883572Y823705D01*
X884630Y826259D01*
X884991Y829000D01*
X884630Y831741D01*
X883572Y834295D01*
X881889Y836489D01*
X879695Y838172D01*
X877141Y839230D01*
X874400Y839591D01*
D02*
G37*
G36*
X849000D02*
X846259Y839230D01*
X843705Y838172D01*
X841511Y836489D01*
X839828Y834295D01*
X838770Y831741D01*
X838409Y829000D01*
X838770Y826259D01*
X839828Y823705D01*
X841511Y821511D01*
X843705Y819828D01*
X846259Y818770D01*
X849000Y818409D01*
X851741Y818770D01*
X854295Y819828D01*
X856489Y821511D01*
X858172Y823705D01*
X859230Y826259D01*
X859591Y829000D01*
X859230Y831741D01*
X858172Y834295D01*
X856489Y836489D01*
X854295Y838172D01*
X851741Y839230D01*
X849000Y839591D01*
D02*
G37*
G36*
X1318968Y826930D02*
X1309270D01*
Y817232D01*
X1310882Y817444D01*
X1313568Y818557D01*
X1315874Y820326D01*
X1317643Y822632D01*
X1318756Y825318D01*
X1318968Y826930D01*
D02*
G37*
G36*
X1306730D02*
X1297032D01*
X1297244Y825318D01*
X1298357Y822632D01*
X1300126Y820326D01*
X1302432Y818557D01*
X1305118Y817444D01*
X1306730Y817232D01*
Y826930D01*
D02*
G37*
G36*
X1333400Y813391D02*
X1330659Y813030D01*
X1328105Y811972D01*
X1325911Y810289D01*
X1324228Y808095D01*
X1323170Y805541D01*
X1322809Y802800D01*
X1323170Y800059D01*
X1324228Y797505D01*
X1325911Y795311D01*
X1328105Y793628D01*
X1330659Y792570D01*
X1333400Y792209D01*
X1336141Y792570D01*
X1338695Y793628D01*
X1340889Y795311D01*
X1342572Y797505D01*
X1343630Y800059D01*
X1343991Y802800D01*
X1343630Y805541D01*
X1342572Y808095D01*
X1340889Y810289D01*
X1338695Y811972D01*
X1336141Y813030D01*
X1333400Y813391D01*
D02*
G37*
G36*
X1308000D02*
X1305259Y813030D01*
X1302705Y811972D01*
X1300511Y810289D01*
X1298828Y808095D01*
X1297770Y805541D01*
X1297409Y802800D01*
X1297770Y800059D01*
X1298828Y797505D01*
X1300511Y795311D01*
X1302705Y793628D01*
X1305259Y792570D01*
X1308000Y792209D01*
X1310741Y792570D01*
X1313295Y793628D01*
X1315489Y795311D01*
X1317172Y797505D01*
X1318230Y800059D01*
X1318591Y802800D01*
X1318230Y805541D01*
X1317172Y808095D01*
X1315489Y810289D01*
X1313295Y811972D01*
X1310741Y813030D01*
X1308000Y813391D01*
D02*
G37*
G36*
X849000Y788791D02*
X846259Y788430D01*
X843705Y787372D01*
X841511Y785689D01*
X839828Y783495D01*
X838770Y780941D01*
X838409Y778200D01*
X838770Y775459D01*
X839828Y772905D01*
X841511Y770711D01*
X843705Y769028D01*
X846259Y767970D01*
X849000Y767609D01*
X851741Y767970D01*
X854295Y769028D01*
X856489Y770711D01*
X858172Y772905D01*
X859230Y775459D01*
X859591Y778200D01*
X859230Y780941D01*
X858172Y783495D01*
X856489Y785689D01*
X854295Y787372D01*
X851741Y788430D01*
X849000Y788791D01*
D02*
G37*
G36*
X1333400Y787991D02*
X1330659Y787630D01*
X1328105Y786572D01*
X1325911Y784889D01*
X1324228Y782695D01*
X1323170Y780141D01*
X1322809Y777400D01*
X1323170Y774659D01*
X1324228Y772105D01*
X1325911Y769911D01*
X1328105Y768228D01*
X1330659Y767170D01*
X1333400Y766809D01*
X1336141Y767170D01*
X1338695Y768228D01*
X1340889Y769911D01*
X1342572Y772105D01*
X1343630Y774659D01*
X1343991Y777400D01*
X1343630Y780141D01*
X1342572Y782695D01*
X1340889Y784889D01*
X1338695Y786572D01*
X1336141Y787630D01*
X1333400Y787991D01*
D02*
G37*
G36*
X1308000D02*
X1305259Y787630D01*
X1302705Y786572D01*
X1300511Y784889D01*
X1298828Y782695D01*
X1297770Y780141D01*
X1297409Y777400D01*
X1297770Y774659D01*
X1298828Y772105D01*
X1300511Y769911D01*
X1302705Y768228D01*
X1305259Y767170D01*
X1308000Y766809D01*
X1310741Y767170D01*
X1313295Y768228D01*
X1315489Y769911D01*
X1317172Y772105D01*
X1318230Y774659D01*
X1318591Y777400D01*
X1318230Y780141D01*
X1317172Y782695D01*
X1315489Y784889D01*
X1313295Y786572D01*
X1310741Y787630D01*
X1308000Y787991D01*
D02*
G37*
G36*
X974481Y756330D02*
X963270D01*
Y745119D01*
X965274Y745383D01*
X968324Y746646D01*
X970944Y748656D01*
X972954Y751276D01*
X974217Y754326D01*
X974481Y756330D01*
D02*
G37*
G36*
X960730D02*
X949519D01*
X949783Y754326D01*
X951046Y751276D01*
X953056Y748656D01*
X955676Y746646D01*
X958726Y745383D01*
X960730Y745119D01*
Y756330D01*
D02*
G37*
G36*
X849000Y763391D02*
X846259Y763030D01*
X843705Y761972D01*
X841511Y760289D01*
X839828Y758095D01*
X838770Y755541D01*
X838409Y752800D01*
X838770Y750059D01*
X839828Y747505D01*
X841511Y745311D01*
X843705Y743628D01*
X846259Y742570D01*
X849000Y742209D01*
X851741Y742570D01*
X854295Y743628D01*
X856489Y745311D01*
X858172Y747505D01*
X859230Y750059D01*
X859591Y752800D01*
X859230Y755541D01*
X858172Y758095D01*
X856489Y760289D01*
X854295Y761972D01*
X851741Y763030D01*
X849000Y763391D01*
D02*
G37*
G36*
X1333400Y762591D02*
X1330659Y762230D01*
X1328105Y761172D01*
X1325911Y759489D01*
X1324228Y757295D01*
X1323170Y754741D01*
X1322809Y752000D01*
X1323170Y749259D01*
X1324228Y746705D01*
X1325911Y744511D01*
X1328105Y742828D01*
X1330659Y741770D01*
X1333400Y741409D01*
X1336141Y741770D01*
X1338695Y742828D01*
X1340889Y744511D01*
X1342572Y746705D01*
X1343630Y749259D01*
X1343991Y752000D01*
X1343630Y754741D01*
X1342572Y757295D01*
X1340889Y759489D01*
X1338695Y761172D01*
X1336141Y762230D01*
X1333400Y762591D01*
D02*
G37*
G36*
X1308000D02*
X1305259Y762230D01*
X1302705Y761172D01*
X1300511Y759489D01*
X1298828Y757295D01*
X1297770Y754741D01*
X1297409Y752000D01*
X1297770Y749259D01*
X1298828Y746705D01*
X1300511Y744511D01*
X1302705Y742828D01*
X1305259Y741770D01*
X1308000Y741409D01*
X1310741Y741770D01*
X1313295Y742828D01*
X1315489Y744511D01*
X1317172Y746705D01*
X1318230Y749259D01*
X1318591Y752000D01*
X1318230Y754741D01*
X1317172Y757295D01*
X1315489Y759489D01*
X1313295Y761172D01*
X1310741Y762230D01*
X1308000Y762591D01*
D02*
G37*
G36*
X849000Y737991D02*
X846259Y737630D01*
X843705Y736572D01*
X841511Y734889D01*
X839828Y732695D01*
X838770Y730141D01*
X838409Y727400D01*
X838770Y724659D01*
X839828Y722105D01*
X841511Y719911D01*
X843705Y718228D01*
X846259Y717170D01*
X849000Y716809D01*
X851741Y717170D01*
X854295Y718228D01*
X856489Y719911D01*
X858172Y722105D01*
X859230Y724659D01*
X859591Y727400D01*
X859230Y730141D01*
X858172Y732695D01*
X856489Y734889D01*
X854295Y736572D01*
X851741Y737630D01*
X849000Y737991D01*
D02*
G37*
G36*
X1333400Y737191D02*
X1330659Y736830D01*
X1328105Y735772D01*
X1325911Y734089D01*
X1324228Y731895D01*
X1323170Y729341D01*
X1322809Y726600D01*
X1323170Y723859D01*
X1324228Y721305D01*
X1325911Y719111D01*
X1328105Y717428D01*
X1330659Y716370D01*
X1333400Y716009D01*
X1336141Y716370D01*
X1338695Y717428D01*
X1340889Y719111D01*
X1342572Y721305D01*
X1343630Y723859D01*
X1343991Y726600D01*
X1343630Y729341D01*
X1342572Y731895D01*
X1340889Y734089D01*
X1338695Y735772D01*
X1336141Y736830D01*
X1333400Y737191D01*
D02*
G37*
G36*
X1308000D02*
X1305259Y736830D01*
X1302705Y735772D01*
X1300511Y734089D01*
X1298828Y731895D01*
X1297770Y729341D01*
X1297409Y726600D01*
X1297770Y723859D01*
X1298828Y721305D01*
X1300511Y719111D01*
X1302705Y717428D01*
X1305259Y716370D01*
X1308000Y716009D01*
X1310741Y716370D01*
X1313295Y717428D01*
X1315489Y719111D01*
X1317172Y721305D01*
X1318230Y723859D01*
X1318591Y726600D01*
X1318230Y729341D01*
X1317172Y731895D01*
X1315489Y734089D01*
X1313295Y735772D01*
X1310741Y736830D01*
X1308000Y737191D01*
D02*
G37*
G36*
X875670Y712968D02*
Y703270D01*
X885368D01*
X885156Y704882D01*
X884043Y707568D01*
X882274Y709874D01*
X879968Y711643D01*
X877282Y712756D01*
X875670Y712968D01*
D02*
G37*
G36*
X873130Y712968D02*
X871518Y712756D01*
X868832Y711643D01*
X866526Y709874D01*
X864757Y707568D01*
X863644Y704882D01*
X863432Y703270D01*
X873130D01*
Y712968D01*
D02*
G37*
G36*
X849000Y712591D02*
X846259Y712230D01*
X843705Y711172D01*
X841511Y709489D01*
X839828Y707295D01*
X838770Y704741D01*
X838409Y702000D01*
X838770Y699259D01*
X839828Y696705D01*
X841511Y694511D01*
X843705Y692828D01*
X846259Y691770D01*
X849000Y691409D01*
X851741Y691770D01*
X854295Y692828D01*
X856489Y694511D01*
X858172Y696705D01*
X859230Y699259D01*
X859591Y702000D01*
X859230Y704741D01*
X858172Y707295D01*
X856489Y709489D01*
X854295Y711172D01*
X851741Y712230D01*
X849000Y712591D01*
D02*
G37*
G36*
X1308000Y711791D02*
X1305259Y711430D01*
X1302705Y710372D01*
X1300511Y708689D01*
X1298828Y706495D01*
X1297770Y703941D01*
X1297409Y701200D01*
X1297770Y698459D01*
X1298828Y695905D01*
X1300511Y693711D01*
X1301954Y692604D01*
X1301523Y691334D01*
X1237409D01*
X1236624Y692290D01*
X1237691Y694867D01*
X1238104Y698000D01*
X1237691Y701133D01*
X1236482Y704052D01*
X1234558Y706559D01*
X1232052Y708482D01*
X1229133Y709691D01*
X1226000Y710104D01*
X1222867Y709691D01*
X1219948Y708482D01*
X1217441Y706559D01*
X1215518Y704052D01*
X1214309Y701133D01*
X1213896Y698000D01*
X1214309Y694867D01*
X1215518Y691948D01*
X1217441Y689442D01*
X1219948Y687518D01*
X1222867Y686309D01*
X1225096Y686015D01*
X1225666Y685940D01*
Y684660D01*
X1225096Y684585D01*
X1222867Y684291D01*
X1219948Y683082D01*
X1217441Y681159D01*
X1215518Y678652D01*
X1214309Y675733D01*
X1213896Y672600D01*
X1214309Y669467D01*
X1215518Y666548D01*
X1217441Y664042D01*
X1219948Y662118D01*
X1222867Y660909D01*
X1226000Y660496D01*
X1229133Y660909D01*
X1231850Y662035D01*
X1234072Y659812D01*
X1235154Y659090D01*
X1236430Y658836D01*
X1299805D01*
X1300264Y657566D01*
X1298828Y655695D01*
X1297770Y653141D01*
X1297409Y650400D01*
X1297770Y647659D01*
X1298828Y645105D01*
X1300511Y642911D01*
X1302705Y641228D01*
X1305259Y640170D01*
X1308000Y639809D01*
X1310741Y640170D01*
X1313295Y641228D01*
X1315489Y642911D01*
X1317172Y645105D01*
X1318230Y647659D01*
X1318591Y650400D01*
X1318230Y653141D01*
X1317172Y655695D01*
X1315736Y657566D01*
X1316195Y658836D01*
X1320249D01*
X1323983Y655102D01*
X1323170Y653141D01*
X1322809Y650400D01*
X1323170Y647659D01*
X1324228Y645105D01*
X1325911Y642911D01*
X1328105Y641228D01*
X1330659Y640170D01*
X1333400Y639809D01*
X1336141Y640170D01*
X1338695Y641228D01*
X1340889Y642911D01*
X1342572Y645105D01*
X1343630Y647659D01*
X1343991Y650400D01*
X1343630Y653141D01*
X1342572Y655695D01*
X1340889Y657889D01*
X1338695Y659572D01*
X1336141Y660630D01*
X1333400Y660991D01*
X1330659Y660630D01*
X1328698Y659817D01*
X1323987Y664528D01*
X1322906Y665250D01*
X1321630Y665504D01*
X1314803D01*
X1314372Y666774D01*
X1315874Y667926D01*
X1317643Y670232D01*
X1318756Y672918D01*
X1318968Y674530D01*
X1308000D01*
X1297032D01*
X1297244Y672918D01*
X1298357Y670232D01*
X1300126Y667926D01*
X1301628Y666774D01*
X1301196Y665504D01*
X1237811D01*
X1236565Y666750D01*
X1237691Y669467D01*
X1238104Y672600D01*
X1237691Y675733D01*
X1236482Y678652D01*
X1234558Y681159D01*
X1232052Y683082D01*
X1229133Y684291D01*
X1226905Y684585D01*
X1226335Y684660D01*
Y685940D01*
X1226904Y686015D01*
X1229133Y686309D01*
X1231850Y687435D01*
X1233643Y685642D01*
X1234724Y684920D01*
X1236000Y684666D01*
X1299498D01*
X1299913Y683396D01*
X1298357Y681368D01*
X1297244Y678682D01*
X1297032Y677070D01*
X1308000D01*
X1318968D01*
X1318756Y678682D01*
X1317643Y681368D01*
X1316087Y683396D01*
X1316502Y684666D01*
X1321619D01*
X1324646Y681639D01*
X1324228Y681095D01*
X1323170Y678541D01*
X1322809Y675800D01*
X1323170Y673059D01*
X1324228Y670505D01*
X1325911Y668311D01*
X1328105Y666628D01*
X1330659Y665570D01*
X1333400Y665209D01*
X1336141Y665570D01*
X1338695Y666628D01*
X1340889Y668311D01*
X1342572Y670505D01*
X1343630Y673059D01*
X1343991Y675800D01*
X1343630Y678541D01*
X1342572Y681095D01*
X1340889Y683289D01*
X1338695Y684972D01*
X1336141Y686030D01*
X1333400Y686391D01*
X1330659Y686030D01*
X1329971Y685745D01*
X1325358Y690358D01*
X1324276Y691080D01*
X1323000Y691334D01*
X1314477D01*
X1314046Y692604D01*
X1315489Y693711D01*
X1317172Y695905D01*
X1318230Y698459D01*
X1318591Y701200D01*
X1318230Y703941D01*
X1317172Y706495D01*
X1315489Y708689D01*
X1313295Y710372D01*
X1310741Y711430D01*
X1308000Y711791D01*
D02*
G37*
G36*
X873130Y700730D02*
X863432D01*
X863644Y699118D01*
X864757Y696432D01*
X866526Y694126D01*
X868832Y692357D01*
X871518Y691244D01*
X873130Y691032D01*
Y700730D01*
D02*
G37*
G36*
X885368D02*
X875670D01*
Y691032D01*
X877282Y691244D01*
X879968Y692357D01*
X882274Y694126D01*
X884043Y696432D01*
X885156Y699118D01*
X885368Y700730D01*
D02*
G37*
G36*
X1333400Y711791D02*
X1330659Y711430D01*
X1328105Y710372D01*
X1325911Y708689D01*
X1324228Y706495D01*
X1323170Y703941D01*
X1322809Y701200D01*
X1323170Y698459D01*
X1324228Y695905D01*
X1325911Y693711D01*
X1328105Y692028D01*
X1330659Y690970D01*
X1333400Y690609D01*
X1336141Y690970D01*
X1338695Y692028D01*
X1340889Y693711D01*
X1342572Y695905D01*
X1343630Y698459D01*
X1343991Y701200D01*
X1343630Y703941D01*
X1342572Y706495D01*
X1340889Y708689D01*
X1338695Y710372D01*
X1336141Y711430D01*
X1333400Y711791D01*
D02*
G37*
G36*
X874400Y687191D02*
X871659Y686830D01*
X869105Y685772D01*
X866911Y684089D01*
X865228Y681895D01*
X864170Y679341D01*
X863809Y676600D01*
X864170Y673859D01*
X865228Y671305D01*
X866911Y669111D01*
X869105Y667428D01*
X871659Y666370D01*
X874400Y666009D01*
X877141Y666370D01*
X879695Y667428D01*
X881889Y669111D01*
X883572Y671305D01*
X884630Y673859D01*
X884991Y676600D01*
X884630Y679341D01*
X883572Y681895D01*
X881889Y684089D01*
X879695Y685772D01*
X877141Y686830D01*
X874400Y687191D01*
D02*
G37*
G36*
X849000D02*
X846259Y686830D01*
X843705Y685772D01*
X841511Y684089D01*
X839828Y681895D01*
X838770Y679341D01*
X838409Y676600D01*
X838770Y673859D01*
X839828Y671305D01*
X841511Y669111D01*
X843705Y667428D01*
X846259Y666370D01*
X849000Y666009D01*
X851741Y666370D01*
X854295Y667428D01*
X856489Y669111D01*
X858172Y671305D01*
X859230Y673859D01*
X859591Y676600D01*
X859230Y679341D01*
X858172Y681895D01*
X856489Y684089D01*
X854295Y685772D01*
X851741Y686830D01*
X849000Y687191D01*
D02*
G37*
G36*
X874400Y661791D02*
X871659Y661430D01*
X869105Y660372D01*
X866911Y658689D01*
X865228Y656495D01*
X864170Y653941D01*
X863809Y651200D01*
X864170Y648459D01*
X865228Y645905D01*
X866911Y643711D01*
X869105Y642028D01*
X871659Y640970D01*
X874400Y640609D01*
X877141Y640970D01*
X879695Y642028D01*
X881889Y643711D01*
X883572Y645905D01*
X884630Y648459D01*
X884991Y651200D01*
X884630Y653941D01*
X883572Y656495D01*
X881889Y658689D01*
X879695Y660372D01*
X877141Y661430D01*
X874400Y661791D01*
D02*
G37*
G36*
X849000D02*
X846259Y661430D01*
X843705Y660372D01*
X841511Y658689D01*
X839828Y656495D01*
X838770Y653941D01*
X838409Y651200D01*
X838770Y648459D01*
X839828Y645905D01*
X841511Y643711D01*
X843705Y642028D01*
X846259Y640970D01*
X849000Y640609D01*
X851741Y640970D01*
X854295Y642028D01*
X856489Y643711D01*
X858172Y645905D01*
X859230Y648459D01*
X859591Y651200D01*
X859230Y653941D01*
X858172Y656495D01*
X856489Y658689D01*
X854295Y660372D01*
X851741Y661430D01*
X849000Y661791D01*
D02*
G37*
G36*
X1227270Y647881D02*
Y636670D01*
X1238481D01*
X1238217Y638674D01*
X1236954Y641724D01*
X1234944Y644344D01*
X1232324Y646354D01*
X1229274Y647617D01*
X1227270Y647881D01*
D02*
G37*
G36*
X1224730D02*
X1222726Y647617D01*
X1219676Y646354D01*
X1217056Y644344D01*
X1215046Y641724D01*
X1213783Y638674D01*
X1213519Y636670D01*
X1224730D01*
Y647881D01*
D02*
G37*
G36*
X1334670Y635968D02*
Y626270D01*
X1344368D01*
X1344156Y627882D01*
X1343043Y630568D01*
X1341274Y632874D01*
X1338968Y634643D01*
X1336282Y635756D01*
X1334670Y635968D01*
D02*
G37*
G36*
X1332130D02*
X1330518Y635756D01*
X1327832Y634643D01*
X1325526Y632874D01*
X1323757Y630568D01*
X1322644Y627882D01*
X1322432Y626270D01*
X1332130D01*
Y635968D01*
D02*
G37*
G36*
X1308000Y635591D02*
X1305259Y635230D01*
X1302705Y634172D01*
X1300511Y632489D01*
X1298828Y630295D01*
X1297770Y627741D01*
X1297409Y625000D01*
X1297770Y622259D01*
X1298828Y619705D01*
X1300511Y617511D01*
X1302705Y615828D01*
X1305259Y614770D01*
X1308000Y614409D01*
X1310741Y614770D01*
X1313295Y615828D01*
X1315489Y617511D01*
X1317172Y619705D01*
X1318230Y622259D01*
X1318591Y625000D01*
X1318230Y627741D01*
X1317172Y630295D01*
X1315489Y632489D01*
X1313295Y634172D01*
X1310741Y635230D01*
X1308000Y635591D01*
D02*
G37*
G36*
X1344368Y623730D02*
X1334670D01*
Y614032D01*
X1336282Y614244D01*
X1338968Y615357D01*
X1341274Y617126D01*
X1343043Y619432D01*
X1344156Y622118D01*
X1344368Y623730D01*
D02*
G37*
G36*
X1332130D02*
X1322432D01*
X1322644Y622118D01*
X1323757Y619432D01*
X1325526Y617126D01*
X1327832Y615357D01*
X1330518Y614244D01*
X1332130Y614032D01*
Y623730D01*
D02*
G37*
G36*
X1238481Y634130D02*
X1226000D01*
X1213519D01*
X1213783Y632126D01*
X1215046Y629076D01*
X1217056Y626456D01*
X1219676Y624446D01*
X1222233Y623387D01*
Y622013D01*
X1219676Y620954D01*
X1217056Y618944D01*
X1215046Y616324D01*
X1213783Y613274D01*
X1213519Y611270D01*
X1226000D01*
X1238481D01*
X1238217Y613274D01*
X1236954Y616324D01*
X1234944Y618944D01*
X1232324Y620954D01*
X1229767Y622013D01*
Y623387D01*
X1232324Y624446D01*
X1234944Y626456D01*
X1236954Y629076D01*
X1238217Y632126D01*
X1238481Y634130D01*
D02*
G37*
G36*
X849000Y636391D02*
X846259Y636030D01*
X843705Y634972D01*
X841511Y633289D01*
X839828Y631095D01*
X838770Y628541D01*
X838409Y625800D01*
X838770Y623059D01*
X839828Y620505D01*
X841511Y618311D01*
X843705Y616628D01*
X846259Y615570D01*
X849000Y615209D01*
X851741Y615570D01*
X853702Y616383D01*
X857666Y612419D01*
Y608288D01*
X857066Y608084D01*
X856396Y607960D01*
X854295Y609572D01*
X851741Y610630D01*
X849000Y610991D01*
X846259Y610630D01*
X843705Y609572D01*
X841511Y607889D01*
X839828Y605695D01*
X838770Y603141D01*
X838409Y600400D01*
X838770Y597659D01*
X839828Y595105D01*
X841511Y592911D01*
X843705Y591228D01*
X846259Y590170D01*
X849000Y589809D01*
X849420Y589865D01*
X853345Y585940D01*
X852626Y584863D01*
X851741Y585230D01*
X849000Y585591D01*
X846259Y585230D01*
X843705Y584172D01*
X841511Y582489D01*
X839828Y580295D01*
X838770Y577741D01*
X838409Y575000D01*
X838770Y572259D01*
X839828Y569705D01*
X841511Y567511D01*
X843705Y565828D01*
X846259Y564770D01*
X848857Y564428D01*
X851613Y561672D01*
X851020Y560469D01*
X850270Y560568D01*
Y549600D01*
Y538632D01*
X851882Y538844D01*
X854568Y539957D01*
X856874Y541726D01*
X857470Y542503D01*
X858828Y542186D01*
X858920Y541724D01*
X859642Y540643D01*
X865642Y534642D01*
X866724Y533920D01*
X867525Y533760D01*
X867895Y532482D01*
X867892Y532441D01*
X866911Y531689D01*
X865228Y529495D01*
X864170Y526941D01*
X863809Y524200D01*
X864170Y521459D01*
X865228Y518905D01*
X866911Y516711D01*
X869105Y515028D01*
X871659Y513970D01*
X874400Y513609D01*
X877141Y513970D01*
X879695Y515028D01*
X881889Y516711D01*
X883572Y518905D01*
X884630Y521459D01*
X884991Y524200D01*
X884630Y526941D01*
X883572Y529495D01*
X881889Y531689D01*
X880967Y532396D01*
X881398Y533666D01*
X933219D01*
X951435Y515450D01*
X950309Y512733D01*
X949896Y509600D01*
X950309Y506467D01*
X951518Y503548D01*
X953441Y501041D01*
X955948Y499118D01*
X958867Y497909D01*
X962000Y497496D01*
X965133Y497909D01*
X968052Y499118D01*
X970558Y501041D01*
X972482Y503548D01*
X973691Y506467D01*
X974103Y509600D01*
X973691Y512733D01*
X972482Y515652D01*
X970558Y518158D01*
X968052Y520082D01*
X965133Y521291D01*
X962904Y521585D01*
X962335Y521660D01*
Y522940D01*
X962904Y523016D01*
X965133Y523309D01*
X968052Y524518D01*
X970558Y526441D01*
X972482Y528948D01*
X973691Y531867D01*
X974103Y535000D01*
X973691Y538133D01*
X972482Y541052D01*
X970558Y543559D01*
X968052Y545482D01*
X965133Y546691D01*
X962000Y547104D01*
X958867Y546691D01*
X956150Y545565D01*
X937357Y564357D01*
X936276Y565080D01*
X935000Y565334D01*
X881137D01*
X880706Y566604D01*
X881889Y567511D01*
X883572Y569705D01*
X884384Y571666D01*
X949839D01*
X949896Y571600D01*
X950309Y568467D01*
X951518Y565548D01*
X953441Y563041D01*
X955948Y561118D01*
X958867Y559909D01*
X962000Y559496D01*
X965133Y559909D01*
X968052Y561118D01*
X970558Y563041D01*
X972482Y565548D01*
X973691Y568467D01*
X974103Y571600D01*
X973691Y574733D01*
X972482Y577652D01*
X970558Y580159D01*
X968052Y582082D01*
X965133Y583291D01*
X962904Y583585D01*
X962335Y583660D01*
Y584940D01*
X962904Y585015D01*
X965133Y585309D01*
X968052Y586518D01*
X970558Y588442D01*
X972482Y590948D01*
X973691Y593867D01*
X974103Y597000D01*
X973691Y600133D01*
X972482Y603052D01*
X970558Y605559D01*
X968052Y607482D01*
X965133Y608691D01*
X962000Y609104D01*
X958867Y608691D01*
X955948Y607482D01*
X953441Y605559D01*
X951518Y603052D01*
X950309Y600133D01*
X949896Y597000D01*
X950309Y593867D01*
X951376Y591290D01*
X950591Y590334D01*
X880616D01*
X880185Y591604D01*
X881889Y592911D01*
X883572Y595105D01*
X884630Y597659D01*
X884991Y600400D01*
X884630Y603141D01*
X883572Y605695D01*
X881889Y607889D01*
X879695Y609572D01*
X877141Y610630D01*
X874400Y610991D01*
X871659Y610630D01*
X869105Y609572D01*
X866911Y607889D01*
X865604Y606185D01*
X864334Y606616D01*
Y613800D01*
X864080Y615076D01*
X863357Y616157D01*
X858417Y621098D01*
X859230Y623059D01*
X859591Y625800D01*
X859230Y628541D01*
X858172Y631095D01*
X856489Y633289D01*
X854295Y634972D01*
X851741Y636030D01*
X849000Y636391D01*
D02*
G37*
G36*
X1224730Y608730D02*
X1213519D01*
X1213783Y606726D01*
X1215046Y603676D01*
X1217056Y601056D01*
X1219676Y599046D01*
X1222726Y597783D01*
X1224730Y597519D01*
Y608730D01*
D02*
G37*
G36*
X1238481D02*
X1227270D01*
Y597519D01*
X1229274Y597783D01*
X1232324Y599046D01*
X1234944Y601056D01*
X1236954Y603676D01*
X1238217Y606726D01*
X1238481Y608730D01*
D02*
G37*
G36*
X1333400Y610191D02*
X1330659Y609830D01*
X1328105Y608772D01*
X1325911Y607089D01*
X1324228Y604895D01*
X1323170Y602341D01*
X1322809Y599600D01*
X1323170Y596859D01*
X1324228Y594305D01*
X1325911Y592111D01*
X1328105Y590428D01*
X1330659Y589370D01*
X1333400Y589009D01*
X1336141Y589370D01*
X1338695Y590428D01*
X1340889Y592111D01*
X1342572Y594305D01*
X1343630Y596859D01*
X1343991Y599600D01*
X1343630Y602341D01*
X1342572Y604895D01*
X1340889Y607089D01*
X1338695Y608772D01*
X1336141Y609830D01*
X1333400Y610191D01*
D02*
G37*
G36*
X1308000D02*
X1305259Y609830D01*
X1302705Y608772D01*
X1300511Y607089D01*
X1298828Y604895D01*
X1297770Y602341D01*
X1297409Y599600D01*
X1297770Y596859D01*
X1298828Y594305D01*
X1300511Y592111D01*
X1302705Y590428D01*
X1305259Y589370D01*
X1308000Y589009D01*
X1310741Y589370D01*
X1313295Y590428D01*
X1315489Y592111D01*
X1317172Y594305D01*
X1318230Y596859D01*
X1318591Y599600D01*
X1318230Y602341D01*
X1317172Y604895D01*
X1315489Y607089D01*
X1313295Y608772D01*
X1310741Y609830D01*
X1308000Y610191D01*
D02*
G37*
G36*
X1227270Y585881D02*
Y574670D01*
X1238481D01*
X1238217Y576674D01*
X1236954Y579724D01*
X1234944Y582344D01*
X1232324Y584354D01*
X1229274Y585617D01*
X1227270Y585881D01*
D02*
G37*
G36*
X1224730D02*
X1222726Y585617D01*
X1219676Y584354D01*
X1217056Y582344D01*
X1215046Y579724D01*
X1213783Y576674D01*
X1213519Y574670D01*
X1224730D01*
Y585881D01*
D02*
G37*
G36*
X1333400Y584791D02*
X1330659Y584430D01*
X1328105Y583372D01*
X1325911Y581689D01*
X1324228Y579495D01*
X1323170Y576941D01*
X1322809Y574200D01*
X1323170Y571459D01*
X1324228Y568905D01*
X1325911Y566711D01*
X1328105Y565028D01*
X1330659Y563970D01*
X1333400Y563609D01*
X1336141Y563970D01*
X1338695Y565028D01*
X1340889Y566711D01*
X1342572Y568905D01*
X1343630Y571459D01*
X1343991Y574200D01*
X1343630Y576941D01*
X1342572Y579495D01*
X1340889Y581689D01*
X1338695Y583372D01*
X1336141Y584430D01*
X1333400Y584791D01*
D02*
G37*
G36*
X1308000D02*
X1305259Y584430D01*
X1302705Y583372D01*
X1300511Y581689D01*
X1298828Y579495D01*
X1297770Y576941D01*
X1297409Y574200D01*
X1297770Y571459D01*
X1298828Y568905D01*
X1300511Y566711D01*
X1302705Y565028D01*
X1305259Y563970D01*
X1308000Y563609D01*
X1310741Y563970D01*
X1313295Y565028D01*
X1315489Y566711D01*
X1317172Y568905D01*
X1318230Y571459D01*
X1318591Y574200D01*
X1318230Y576941D01*
X1317172Y579495D01*
X1315489Y581689D01*
X1313295Y583372D01*
X1310741Y584430D01*
X1308000Y584791D01*
D02*
G37*
G36*
X847730Y560568D02*
X846118Y560356D01*
X843432Y559243D01*
X841126Y557474D01*
X839357Y555168D01*
X838244Y552482D01*
X838032Y550870D01*
X847730D01*
Y560568D01*
D02*
G37*
G36*
X1309270Y559768D02*
Y550070D01*
X1318968D01*
X1318756Y551682D01*
X1317643Y554368D01*
X1315874Y556674D01*
X1313568Y558443D01*
X1310882Y559556D01*
X1309270Y559768D01*
D02*
G37*
G36*
X1306730D02*
X1305118Y559556D01*
X1302432Y558443D01*
X1300126Y556674D01*
X1298357Y554368D01*
X1297244Y551682D01*
X1297032Y550070D01*
X1306730D01*
Y559768D01*
D02*
G37*
G36*
X1238481Y572130D02*
X1226000D01*
X1213519D01*
X1213783Y570126D01*
X1215046Y567076D01*
X1217056Y564456D01*
X1219676Y562446D01*
X1222233Y561387D01*
Y560013D01*
X1219676Y558954D01*
X1217056Y556944D01*
X1215046Y554324D01*
X1213783Y551274D01*
X1213519Y549270D01*
X1226000D01*
X1238481D01*
X1238217Y551274D01*
X1236954Y554324D01*
X1234944Y556944D01*
X1232324Y558954D01*
X1229767Y560013D01*
Y561387D01*
X1232324Y562446D01*
X1234944Y564456D01*
X1236954Y567076D01*
X1238217Y570126D01*
X1238481Y572130D01*
D02*
G37*
G36*
X847730Y548330D02*
X838032D01*
X838244Y546718D01*
X839357Y544032D01*
X841126Y541726D01*
X843432Y539957D01*
X846118Y538844D01*
X847730Y538632D01*
Y548330D01*
D02*
G37*
G36*
X1333400Y559391D02*
X1330659Y559030D01*
X1328105Y557972D01*
X1325911Y556289D01*
X1324228Y554095D01*
X1323170Y551541D01*
X1322809Y548800D01*
X1323170Y546059D01*
X1324228Y543505D01*
X1325911Y541311D01*
X1328105Y539628D01*
X1330659Y538570D01*
X1333400Y538209D01*
X1336141Y538570D01*
X1338695Y539628D01*
X1340889Y541311D01*
X1342572Y543505D01*
X1343630Y546059D01*
X1343991Y548800D01*
X1343630Y551541D01*
X1342572Y554095D01*
X1340889Y556289D01*
X1338695Y557972D01*
X1336141Y559030D01*
X1333400Y559391D01*
D02*
G37*
G36*
X1318968Y547530D02*
X1309270D01*
Y537832D01*
X1310882Y538044D01*
X1313568Y539157D01*
X1315874Y540926D01*
X1317643Y543232D01*
X1318756Y545918D01*
X1318968Y547530D01*
D02*
G37*
G36*
X1306730D02*
X1297032D01*
X1297244Y545918D01*
X1298357Y543232D01*
X1300126Y540926D01*
X1302432Y539157D01*
X1305118Y538044D01*
X1306730Y537832D01*
Y547530D01*
D02*
G37*
G36*
X1238481Y546730D02*
X1227270D01*
Y535519D01*
X1229274Y535783D01*
X1232324Y537046D01*
X1234944Y539056D01*
X1236954Y541676D01*
X1238217Y544726D01*
X1238481Y546730D01*
D02*
G37*
G36*
X1224730D02*
X1213519D01*
X1213783Y544726D01*
X1215046Y541676D01*
X1217056Y539056D01*
X1219676Y537046D01*
X1222726Y535783D01*
X1224730Y535519D01*
Y546730D01*
D02*
G37*
G36*
X1308000Y533991D02*
X1305259Y533630D01*
X1302705Y532572D01*
X1300511Y530889D01*
X1298828Y528695D01*
X1297770Y526141D01*
X1297409Y523400D01*
X1297770Y520659D01*
X1298828Y518105D01*
X1300511Y515911D01*
X1301000Y515537D01*
X1300591Y514334D01*
X1237608D01*
X1236482Y517052D01*
X1234558Y519558D01*
X1232052Y521482D01*
X1229133Y522691D01*
X1226000Y523104D01*
X1222867Y522691D01*
X1219948Y521482D01*
X1217441Y519558D01*
X1215518Y517052D01*
X1214309Y514133D01*
X1213896Y511000D01*
X1214309Y507867D01*
X1215518Y504948D01*
X1217441Y502441D01*
X1219948Y500518D01*
X1222867Y499309D01*
X1225096Y499016D01*
X1225666Y498940D01*
Y497660D01*
X1225096Y497584D01*
X1222867Y497291D01*
X1219948Y496082D01*
X1217441Y494159D01*
X1215518Y491652D01*
X1214309Y488733D01*
X1213896Y485600D01*
X1214309Y482467D01*
X1215518Y479548D01*
X1217441Y477042D01*
X1219948Y475118D01*
X1222867Y473909D01*
X1226000Y473496D01*
X1229133Y473909D01*
X1232052Y475118D01*
X1234558Y477042D01*
X1236482Y479548D01*
X1237608Y482266D01*
X1301263D01*
X1301694Y480996D01*
X1300511Y480089D01*
X1298828Y477895D01*
X1297770Y475341D01*
X1297409Y472600D01*
X1297770Y469859D01*
X1298828Y467305D01*
X1300511Y465111D01*
X1302705Y463428D01*
X1305259Y462370D01*
X1308000Y462009D01*
X1310741Y462370D01*
X1313295Y463428D01*
X1315489Y465111D01*
X1317172Y467305D01*
X1318230Y469859D01*
X1318591Y472600D01*
X1318230Y475341D01*
X1317172Y477895D01*
X1315489Y480089D01*
X1314306Y480996D01*
X1314737Y482266D01*
X1319019D01*
X1323983Y477302D01*
X1323170Y475341D01*
X1322809Y472600D01*
X1323170Y469859D01*
X1324228Y467305D01*
X1325911Y465111D01*
X1328105Y463428D01*
X1330659Y462370D01*
X1333400Y462009D01*
X1336141Y462370D01*
X1338695Y463428D01*
X1340889Y465111D01*
X1342572Y467305D01*
X1343630Y469859D01*
X1343991Y472600D01*
X1343630Y475341D01*
X1342572Y477895D01*
X1340889Y480089D01*
X1338695Y481772D01*
X1336141Y482830D01*
X1333400Y483191D01*
X1330659Y482830D01*
X1328698Y482017D01*
X1322758Y487957D01*
X1321676Y488680D01*
X1320400Y488934D01*
X1315409D01*
X1315000Y490137D01*
X1315489Y490511D01*
X1317172Y492705D01*
X1318230Y495259D01*
X1318591Y498000D01*
X1318230Y500741D01*
X1317172Y503295D01*
X1315489Y505489D01*
X1314306Y506396D01*
X1314737Y507666D01*
X1319019D01*
X1323983Y502702D01*
X1323170Y500741D01*
X1322809Y498000D01*
X1323170Y495259D01*
X1324228Y492705D01*
X1325911Y490511D01*
X1328105Y488828D01*
X1330659Y487770D01*
X1333400Y487409D01*
X1336141Y487770D01*
X1338695Y488828D01*
X1340889Y490511D01*
X1342572Y492705D01*
X1343630Y495259D01*
X1343991Y498000D01*
X1343630Y500741D01*
X1342572Y503295D01*
X1340889Y505489D01*
X1338695Y507172D01*
X1336141Y508230D01*
X1333400Y508591D01*
X1330659Y508230D01*
X1328698Y507417D01*
X1322758Y513358D01*
X1321676Y514080D01*
X1320400Y514334D01*
X1315409D01*
X1315000Y515537D01*
X1315489Y515911D01*
X1317172Y518105D01*
X1318230Y520659D01*
X1318591Y523400D01*
X1318230Y526141D01*
X1317172Y528695D01*
X1315489Y530889D01*
X1313295Y532572D01*
X1310741Y533630D01*
X1308000Y533991D01*
D02*
G37*
G36*
X849000Y534791D02*
X846259Y534430D01*
X843705Y533372D01*
X841511Y531689D01*
X839828Y529495D01*
X838770Y526941D01*
X838409Y524200D01*
X838770Y521459D01*
X839828Y518905D01*
X841511Y516711D01*
X843705Y515028D01*
X846259Y513970D01*
X849000Y513609D01*
X851741Y513970D01*
X854295Y515028D01*
X856489Y516711D01*
X858172Y518905D01*
X859230Y521459D01*
X859591Y524200D01*
X859230Y526941D01*
X858172Y529495D01*
X856489Y531689D01*
X854295Y533372D01*
X851741Y534430D01*
X849000Y534791D01*
D02*
G37*
G36*
X1333400Y533991D02*
X1330659Y533630D01*
X1328105Y532572D01*
X1325911Y530889D01*
X1324228Y528695D01*
X1323170Y526141D01*
X1322809Y523400D01*
X1323170Y520659D01*
X1324228Y518105D01*
X1325911Y515911D01*
X1328105Y514228D01*
X1330659Y513170D01*
X1333400Y512809D01*
X1336141Y513170D01*
X1338695Y514228D01*
X1340889Y515911D01*
X1342572Y518105D01*
X1343630Y520659D01*
X1343991Y523400D01*
X1343630Y526141D01*
X1342572Y528695D01*
X1340889Y530889D01*
X1338695Y532572D01*
X1336141Y533630D01*
X1333400Y533991D01*
D02*
G37*
G36*
X874400Y509391D02*
X871659Y509030D01*
X869105Y507972D01*
X866911Y506289D01*
X865228Y504095D01*
X864170Y501541D01*
X863809Y498800D01*
X864170Y496059D01*
X865228Y493505D01*
X866911Y491311D01*
X869105Y489628D01*
X871659Y488570D01*
X874400Y488209D01*
X877141Y488570D01*
X879695Y489628D01*
X881889Y491311D01*
X883572Y493505D01*
X884630Y496059D01*
X884991Y498800D01*
X884630Y501541D01*
X883572Y504095D01*
X881889Y506289D01*
X879695Y507972D01*
X877141Y509030D01*
X874400Y509391D01*
D02*
G37*
G36*
X849000D02*
X846259Y509030D01*
X843705Y507972D01*
X841511Y506289D01*
X839828Y504095D01*
X838770Y501541D01*
X838409Y498800D01*
X838770Y496059D01*
X839828Y493505D01*
X841511Y491311D01*
X843705Y489628D01*
X846259Y488570D01*
X849000Y488209D01*
X851741Y488570D01*
X854295Y489628D01*
X856489Y491311D01*
X858172Y493505D01*
X859230Y496059D01*
X859591Y498800D01*
X859230Y501541D01*
X858172Y504095D01*
X856489Y506289D01*
X854295Y507972D01*
X851741Y509030D01*
X849000Y509391D01*
D02*
G37*
G36*
X874400Y483991D02*
X871659Y483630D01*
X869105Y482572D01*
X866911Y480889D01*
X865228Y478695D01*
X864170Y476141D01*
X863809Y473400D01*
X864170Y470659D01*
X865228Y468105D01*
X866911Y465911D01*
X869105Y464228D01*
X871659Y463170D01*
X874400Y462809D01*
X877141Y463170D01*
X879695Y464228D01*
X881889Y465911D01*
X883572Y468105D01*
X884630Y470659D01*
X884991Y473400D01*
X884630Y476141D01*
X883572Y478695D01*
X881889Y480889D01*
X879695Y482572D01*
X877141Y483630D01*
X874400Y483991D01*
D02*
G37*
G36*
X849000D02*
X846259Y483630D01*
X843705Y482572D01*
X841511Y480889D01*
X839828Y478695D01*
X838770Y476141D01*
X838409Y473400D01*
X838770Y470659D01*
X839828Y468105D01*
X841511Y465911D01*
X843705Y464228D01*
X846259Y463170D01*
X849000Y462809D01*
X851741Y463170D01*
X854295Y464228D01*
X856489Y465911D01*
X858172Y468105D01*
X859230Y470659D01*
X859591Y473400D01*
X859230Y476141D01*
X858172Y478695D01*
X856489Y480889D01*
X854295Y482572D01*
X851741Y483630D01*
X849000Y483991D01*
D02*
G37*
%LPD*%
G36*
X1298828Y1141705D02*
X1300511Y1139511D01*
X1302138Y1138263D01*
X1302182Y1138108D01*
X1302045Y1136790D01*
X1301397Y1136357D01*
X1256643Y1091603D01*
X1255920Y1090521D01*
X1255666Y1089245D01*
Y1083319D01*
X1237087Y1064740D01*
X1235884Y1065333D01*
X1236104Y1067000D01*
X1235691Y1070133D01*
X1234482Y1073052D01*
X1232559Y1075558D01*
X1230052Y1077482D01*
X1227133Y1078691D01*
X1224904Y1078985D01*
X1224335Y1079060D01*
Y1080340D01*
X1224904Y1080415D01*
X1227133Y1080709D01*
X1230052Y1081918D01*
X1232559Y1083841D01*
X1234482Y1086348D01*
X1235691Y1089267D01*
X1236104Y1092400D01*
X1235826Y1094511D01*
X1284981Y1143666D01*
X1298016D01*
X1298828Y1141705D01*
D02*
G37*
G36*
X1297462Y1121197D02*
X1297770Y1118859D01*
X1298828Y1116305D01*
X1300511Y1114111D01*
X1302476Y1112604D01*
X1302314Y1111671D01*
X1302140Y1111334D01*
X1300000D01*
X1298724Y1111080D01*
X1297643Y1110358D01*
X1269642Y1082357D01*
X1268920Y1081276D01*
X1268666Y1080000D01*
Y1054981D01*
X1229850Y1016165D01*
X1227133Y1017291D01*
X1224904Y1017585D01*
X1224335Y1017660D01*
Y1018940D01*
X1224904Y1019016D01*
X1227133Y1019309D01*
X1230052Y1020518D01*
X1232559Y1022441D01*
X1234482Y1024948D01*
X1235691Y1027867D01*
X1236104Y1031000D01*
X1235691Y1034133D01*
X1234482Y1037052D01*
X1232559Y1039558D01*
X1230052Y1041482D01*
X1227334Y1042608D01*
Y1045557D01*
X1261357Y1079581D01*
X1262080Y1080662D01*
X1262334Y1081938D01*
Y1087864D01*
X1296240Y1121771D01*
X1297462Y1121197D01*
D02*
G37*
G36*
X986666Y1022619D02*
Y918381D01*
X978019Y909734D01*
X973608D01*
X972482Y912452D01*
X970558Y914958D01*
X968052Y916882D01*
X965133Y918091D01*
X962000Y918503D01*
X958867Y918091D01*
X955948Y916882D01*
X953441Y914958D01*
X951518Y912452D01*
X950392Y909734D01*
X928981D01*
X893357Y945358D01*
X892276Y946080D01*
X891000Y946334D01*
X881809D01*
X881400Y947537D01*
X881889Y947911D01*
X883572Y950105D01*
X884384Y952066D01*
X948819D01*
X951435Y949450D01*
X950309Y946733D01*
X949896Y943600D01*
X950309Y940467D01*
X951518Y937548D01*
X953441Y935042D01*
X955948Y933118D01*
X958867Y931909D01*
X962000Y931496D01*
X965133Y931909D01*
X968052Y933118D01*
X970558Y935042D01*
X972482Y937548D01*
X973691Y940467D01*
X974104Y943600D01*
X973691Y946733D01*
X972482Y949652D01*
X970558Y952159D01*
X968052Y954082D01*
X965133Y955291D01*
X962904Y955584D01*
X962335Y955660D01*
Y956940D01*
X962904Y957016D01*
X965133Y957309D01*
X968052Y958518D01*
X970558Y960442D01*
X972482Y962948D01*
X973691Y965867D01*
X974104Y969000D01*
X973691Y972133D01*
X972482Y975052D01*
X970558Y977559D01*
X968052Y979482D01*
X965133Y980691D01*
X962000Y981104D01*
X958867Y980691D01*
X956150Y979565D01*
X952558Y983158D01*
X951476Y983880D01*
X950200Y984134D01*
X884384D01*
X883572Y986095D01*
X881889Y988289D01*
X881661Y988463D01*
X882069Y989666D01*
X904000D01*
X905276Y989920D01*
X906357Y990642D01*
X917381Y1001666D01*
X950392D01*
X951518Y998948D01*
X953441Y996441D01*
X955948Y994518D01*
X958867Y993309D01*
X962000Y992896D01*
X965133Y993309D01*
X968052Y994518D01*
X970558Y996441D01*
X972482Y998948D01*
X973691Y1001867D01*
X974104Y1005000D01*
X973691Y1008133D01*
X972482Y1011052D01*
X970558Y1013559D01*
X968052Y1015482D01*
X965133Y1016691D01*
X962904Y1016984D01*
X962335Y1017060D01*
Y1018340D01*
X962904Y1018416D01*
X965133Y1018709D01*
X968052Y1019918D01*
X970558Y1021842D01*
X972482Y1024348D01*
X973608Y1027066D01*
X982219D01*
X986666Y1022619D01*
D02*
G37*
G36*
X1256666Y931619D02*
X1256666Y890001D01*
X1256919Y888725D01*
X1257642Y887643D01*
X1280412Y864873D01*
X1281494Y864150D01*
X1282770Y863896D01*
X1302170D01*
X1302431Y863347D01*
X1302515Y862626D01*
X1300511Y861089D01*
X1298828Y858895D01*
X1297770Y856341D01*
X1297409Y853600D01*
X1297770Y850859D01*
X1298828Y848305D01*
X1300511Y846111D01*
X1301172Y845604D01*
X1300741Y844334D01*
X1278381D01*
X1232334Y890381D01*
Y934869D01*
X1232559Y935042D01*
X1234482Y937548D01*
X1235691Y940467D01*
X1236104Y943600D01*
X1235691Y946733D01*
X1234482Y949652D01*
X1232559Y952159D01*
X1230052Y954082D01*
X1227133Y955291D01*
X1224904Y955584D01*
X1224335Y955660D01*
Y956940D01*
X1224904Y957016D01*
X1227133Y957309D01*
X1229850Y958435D01*
X1256666Y931619D01*
D02*
G37*
G36*
X958867Y585309D02*
X961096Y585015D01*
X961665Y584940D01*
Y583660D01*
X961096Y583585D01*
X958867Y583291D01*
X955948Y582082D01*
X953441Y580159D01*
X952041Y578334D01*
X884384D01*
X883572Y580295D01*
X881960Y582396D01*
X882085Y583065D01*
X882288Y583666D01*
X952000D01*
X953276Y583920D01*
X954358Y584642D01*
X956150Y586435D01*
X958867Y585309D01*
D02*
G37*
G36*
X951435Y540850D02*
X950309Y538133D01*
X949896Y535000D01*
X950309Y531867D01*
X951518Y528948D01*
X953441Y526441D01*
X955948Y524518D01*
X958867Y523309D01*
X961096Y523016D01*
X961665Y522940D01*
Y521660D01*
X961096Y521585D01*
X958867Y521291D01*
X956150Y520165D01*
X936957Y539357D01*
X935876Y540080D01*
X934600Y540334D01*
X881659D01*
X881228Y541604D01*
X881889Y542111D01*
X883572Y544305D01*
X884630Y546859D01*
X884991Y549600D01*
X884630Y552341D01*
X883572Y554895D01*
X881889Y557089D01*
X881400Y557463D01*
X881809Y558666D01*
X933619D01*
X951435Y540850D01*
D02*
G37*
G36*
X1301694Y506396D02*
X1300511Y505489D01*
X1298828Y503295D01*
X1297770Y500741D01*
X1297409Y498000D01*
X1297770Y495259D01*
X1298828Y492705D01*
X1300511Y490511D01*
X1301000Y490137D01*
X1300591Y488934D01*
X1237608D01*
X1236482Y491652D01*
X1234558Y494159D01*
X1232052Y496082D01*
X1229133Y497291D01*
X1226905Y497584D01*
X1226335Y497660D01*
Y498940D01*
X1226904Y499016D01*
X1229133Y499309D01*
X1232052Y500518D01*
X1234558Y502441D01*
X1236482Y504948D01*
X1237608Y507666D01*
X1301263D01*
X1301694Y506396D01*
D02*
G37*
D10*
X1320400Y485600D02*
X1333400Y472600D01*
X1226000Y485600D02*
X1320400D01*
Y511000D02*
X1333400Y498000D01*
X1226000Y511000D02*
X1320400D01*
X874400Y627000D02*
X930000D01*
X1226000Y672600D02*
X1236430Y662170D01*
X1226000Y698000D02*
X1236000Y688000D01*
X975000Y681000D02*
X980000Y686000D01*
X949000Y681000D02*
X975000D01*
X902600Y727400D02*
X949000Y681000D01*
X962000Y906400D02*
X979400D01*
X990000Y917000D01*
Y1024000D01*
X983600Y1030400D02*
X990000Y1024000D01*
X962000Y1030400D02*
X983600D01*
X874400Y1031600D02*
X900600D01*
X962000Y1093000D01*
X874400Y1006200D02*
X900600D01*
X962000Y1067600D01*
X849000Y980800D02*
X861200Y993000D01*
X904000D01*
X916000Y1005000D01*
X962000D01*
X874400Y955400D02*
X950200D01*
X962000Y943600D01*
X874400Y980800D02*
X950200D01*
X962000Y969000D01*
X849000Y955400D02*
X861400Y943000D01*
X891000D01*
X927600Y906400D01*
X962000D01*
X874400Y879200D02*
X902400D01*
X962000Y819600D01*
X874400Y904600D02*
X902400D01*
X962000Y845000D01*
X849000Y803600D02*
X851400D01*
X865030Y789970D01*
X955030D01*
X962000Y783000D01*
X874400Y752800D02*
X904200D01*
X962000Y695000D01*
X874400Y778200D02*
X904200D01*
X962000Y720400D01*
X962000Y881000D02*
X980000Y863000D01*
Y686000D02*
Y863000D01*
X874400Y727400D02*
X902600D01*
X849000Y625800D02*
X861000Y613800D01*
X952000Y587000D02*
X962000Y597000D01*
X861000Y594000D02*
Y613800D01*
Y594000D02*
X868000Y587000D01*
X952000D01*
X874400Y575000D02*
X958600D01*
X962000Y571600D01*
X849000Y595000D02*
Y600400D01*
Y595000D02*
X862000Y582000D01*
Y566000D02*
Y582000D01*
Y566000D02*
X866000Y562000D01*
X935000D01*
X962000Y535000D01*
X849000Y569000D02*
Y575000D01*
Y569000D02*
X862000Y556000D01*
Y543000D02*
Y556000D01*
Y543000D02*
X868000Y537000D01*
X934600D01*
X962000Y509600D01*
X1229000Y1092400D02*
X1283600Y1147000D01*
X1308000D01*
X1185000Y1027000D02*
X1224000Y1066000D01*
Y1031000D02*
Y1046938D01*
X1259000Y1089245D02*
X1303755Y1134000D01*
X1320400D01*
X1333400Y1147000D01*
X1319800Y1108000D02*
X1333400Y1121600D01*
X1300000Y1108000D02*
X1319800D01*
X1272000Y1080000D02*
X1300000Y1108000D01*
X1319770Y867230D02*
X1333400Y853600D01*
X1224000Y969000D02*
X1260000Y933000D01*
X1330800Y828200D02*
X1333400D01*
X1318000Y841000D02*
X1330800Y828200D01*
X1277000Y841000D02*
X1318000D01*
X1229000Y889000D02*
X1277000Y841000D01*
X1229000Y889000D02*
Y943600D01*
X1282770Y867230D02*
X1319770D01*
X1333400Y675800D02*
Y677600D01*
X1323000Y688000D02*
X1333400Y677600D01*
X1236000Y688000D02*
X1323000D01*
X1321630Y662170D02*
X1333400Y650400D01*
X1236430Y662170D02*
X1321630D01*
X930000Y627000D02*
X1185000Y882000D01*
Y1028000D01*
X1224000Y1046938D02*
X1259000Y1081938D01*
Y1089245D01*
X1224000Y1005600D02*
X1272000Y1053600D01*
Y1080000D01*
X1260000Y890001D02*
X1282770Y867230D01*
X1260000Y890001D02*
X1260000Y933000D01*
D11*
X849000Y829000D02*
D03*
X874400D02*
D03*
X849000Y803600D02*
D03*
X874400D02*
D03*
X849000Y778200D02*
D03*
X874400D02*
D03*
X849000Y752800D02*
D03*
X874400D02*
D03*
X849000Y727400D02*
D03*
X874400D02*
D03*
X849000Y702000D02*
D03*
X874400D02*
D03*
X849000Y676600D02*
D03*
X874400D02*
D03*
X849000Y651200D02*
D03*
X874400D02*
D03*
X849000Y625800D02*
D03*
X874400D02*
D03*
X849000Y600400D02*
D03*
X874400D02*
D03*
X849000Y575000D02*
D03*
X874400D02*
D03*
X849000Y549600D02*
D03*
X874400D02*
D03*
X849000Y524200D02*
D03*
X874400D02*
D03*
X849000Y498800D02*
D03*
X874400D02*
D03*
X849000Y473400D02*
D03*
X874400D02*
D03*
Y879200D02*
D03*
X849000D02*
D03*
X874400Y904600D02*
D03*
X849000D02*
D03*
X874400Y930000D02*
D03*
X849000D02*
D03*
X874400Y955400D02*
D03*
X849000D02*
D03*
X874400Y980800D02*
D03*
X849000D02*
D03*
X874400Y1006200D02*
D03*
X849000D02*
D03*
X874400Y1031600D02*
D03*
X849000D02*
D03*
X874400Y1057000D02*
D03*
X849000D02*
D03*
X1333400Y472600D02*
D03*
X1308000D02*
D03*
X1333400Y498000D02*
D03*
X1308000D02*
D03*
X1333400Y523400D02*
D03*
X1308000D02*
D03*
X1333400Y548800D02*
D03*
X1308000D02*
D03*
X1333400Y574200D02*
D03*
X1308000D02*
D03*
X1333400Y599600D02*
D03*
X1308000D02*
D03*
X1333400Y625000D02*
D03*
X1308000D02*
D03*
X1333400Y650400D02*
D03*
X1308000D02*
D03*
X1333400Y675800D02*
D03*
X1308000D02*
D03*
X1333400Y701200D02*
D03*
X1308000D02*
D03*
X1333400Y726600D02*
D03*
X1308000D02*
D03*
X1333400Y752000D02*
D03*
X1308000D02*
D03*
X1333400Y777400D02*
D03*
X1308000D02*
D03*
X1333400Y802800D02*
D03*
X1308000D02*
D03*
X1333400Y828200D02*
D03*
X1308000D02*
D03*
X1333400Y853600D02*
D03*
X1308000D02*
D03*
X1333400Y879000D02*
D03*
X1308000D02*
D03*
X1333400Y918400D02*
D03*
X1308000D02*
D03*
X1333400Y943800D02*
D03*
X1308000D02*
D03*
X1333400Y969200D02*
D03*
X1308000D02*
D03*
X1333400Y994600D02*
D03*
X1308000D02*
D03*
X1333400Y1020000D02*
D03*
X1308000D02*
D03*
X1333400Y1045400D02*
D03*
X1308000D02*
D03*
X1333400Y1070800D02*
D03*
X1308000D02*
D03*
X1333400Y1096200D02*
D03*
X1308000D02*
D03*
X1333400Y1121600D02*
D03*
X1308000D02*
D03*
X1333400Y1147000D02*
D03*
X1308000D02*
D03*
D12*
X962000Y1067600D02*
D03*
Y1093000D02*
D03*
Y943600D02*
D03*
Y969000D02*
D03*
X1224000Y1005600D02*
D03*
Y1031000D02*
D03*
Y1092400D02*
D03*
Y1067000D02*
D03*
X962000Y819600D02*
D03*
Y845000D02*
D03*
Y906400D02*
D03*
Y881000D02*
D03*
X962000Y720400D02*
D03*
Y695000D02*
D03*
X1226000Y485600D02*
D03*
Y511000D02*
D03*
X962000Y571600D02*
D03*
Y597000D02*
D03*
Y509600D02*
D03*
Y535000D02*
D03*
X1226000Y635400D02*
D03*
Y610000D02*
D03*
X962000Y757600D02*
D03*
Y783000D02*
D03*
X1224000Y943600D02*
D03*
Y969000D02*
D03*
X1226000Y672600D02*
D03*
Y698000D02*
D03*
Y573400D02*
D03*
Y548000D02*
D03*
X962000Y1030400D02*
D03*
Y1005000D02*
D03*
M02*
