M48
;Layer_Color=9474304
;FILE_FORMAT=4:4
METRIC,TZ
;TYPE=PLATED
T1F00S00C1.2000
%
T01
X1226000Y485600
Y511000
Y548000
Y573400
Y610000
Y635400
Y672600
Y698000
X1308000Y701200
Y675800
Y650400
Y625000
Y599600
Y574200
Y548800
Y523400
Y498000
Y472600
X1333400
Y498000
Y523400
Y548800
Y574200
Y599600
Y625000
Y650400
Y675800
Y701200
Y726600
X1308000
Y752000
X1333400
Y777400
X1308000
X962000Y783000
Y757600
X962000Y720400
Y695000
X874400Y702000
Y727400
Y752800
Y778200
X849000
Y752800
Y727400
Y702000
Y676600
X874400
Y651200
X849000
Y625800
X874400
Y600400
X849000
Y575000
X874400
Y549600
X849000
Y524200
X874400
Y498800
X849000
Y473400
X874400
X962000Y509600
Y535000
Y571600
Y597000
X962000Y819600
Y845000
Y881000
Y906400
Y943600
Y969000
Y1005000
Y1030400
Y1067600
Y1093000
X874400Y1057000
Y1031600
Y1006200
Y980800
Y955400
Y930000
Y904600
Y879200
X849000
Y904600
Y930000
Y955400
Y980800
Y1006200
Y1031600
Y1057000
Y829000
X874400
Y803600
X849000
X1308000Y802800
X1333400
Y828200
X1308000
Y853600
X1333400
Y879000
X1308000
Y918400
X1333400
Y943800
X1308000
Y969200
X1333400
Y994600
X1308000
Y1020000
X1333400
Y1045400
X1308000
Y1070800
X1333400
Y1096200
X1308000
Y1121600
X1333400
Y1147000
X1308000
X1224000Y1092400
Y1067000
Y1031000
Y1005600
X1224000Y969000
Y943600
M30
